<svg id="Layer_1" data-name="Layer 1" xmlns="http://www.w3.org/2000/svg" viewBox="0 0 100 100"><defs><style>.cls-1{fill:#555;}</style></defs><title>instagram</title><path class="cls-1" d="M50.16,1.69c26.51-.25,48.53,21.9,48.52,48.49a48.85,48.85,0,0,1-48.56,48.5A48.85,48.85,0,0,1,1.64,50.1C1.67,23.55,23.67,1.44,50.16,1.69Zm0,75.89c5.45,0,10.9,0,16.34,0a11.18,11.18,0,0,0,4.87-1,10.38,10.38,0,0,0,6.18-10c0-11,0-22,0-33a10.56,10.56,0,0,0-10.93-10.9q-16.45,0-32.93,0a10.62,10.62,0,0,0-4.71.91,10.35,10.35,0,0,0-6.25,9.94c0,11,0,22.06,0,33.09a10.58,10.58,0,0,0,11,10.89C39.23,77.59,44.7,77.58,50.18,77.58Z"/><path class="cls-1" d="M50.12,72.42c-5.58,0-11.16,0-16.74,0a5.35,5.35,0,0,1-5.29-3.89,5.08,5.08,0,0,1-.19-1.64c0-7.17,0-14.33,0-21.5,0-.78.27-1,1-1,2.14,0,4.28,0,6.42,0,.93,0,1,.08.71,1a14.27,14.27,0,0,0-.58,7.27,14.51,14.51,0,0,0,7.89,10.78,14.9,14.9,0,0,0,20-6.36,14.61,14.61,0,0,0,.89-11.68c-.28-.89-.23-1,.7-1,2.17,0,4.34,0,6.5,0,.67,0,1,.18,1,.9,0,7.3,0,14.59,0,21.89a5.27,5.27,0,0,1-5.22,5.22c-5.69,0-11.37,0-17.06,0Z"/><path class="cls-1" d="M59.94,50.13A9.78,9.78,0,1,1,50,40.36,9.93,9.93,0,0,1,59.94,50.13Z"/><path class="cls-1" d="M71.45,33.66c0,1.32,0,2.64,0,4,0,.57-.21.82-.79.82q-4,0-8,0c-.53,0-.77-.2-.77-.74,0-2.7,0-5.39,0-8.09,0-.54.22-.76.75-.75h8.09c.54,0,.75.23.74.76C71.44,31,71.45,32.32,71.45,33.66Z"/></svg>