<svg id="Layer_2" data-name="Layer 2" xmlns="http://www.w3.org/2000/svg" viewBox="0 0 1273.75 85"><defs><style>.cls-1{fill:#e3e3e3;}</style></defs><title>Page 1 Text-03</title><path class="cls-1" d="M960.75,41.88a6.75,6.75,0,0,0-3.93-1.07h-3.13v9h2.61a12.92,12.92,0,0,0,2.32-.21,5.31,5.31,0,0,0,1.92-.75,3.91,3.91,0,0,0,1.28-1.4,4.71,4.71,0,0,0,.47-2.18A3.82,3.82,0,0,0,960.75,41.88Z" transform="translate(-12.25 -5)"/><path class="cls-1" d="M638.39,46.3c-.37-1.23-.73-2.47-1.07-3.71h-.1c-.34,1.18-.71,2.39-1.12,3.62s-.82,2.49-1.26,3.76l-1.36,3.93H641L639.65,50C639.17,48.76,638.77,47.54,638.39,46.3Z" transform="translate(-12.25 -5)"/><path class="cls-1" d="M897.72,46.3c-.38-1.23-.74-2.47-1.08-3.71h-.09c-.35,1.18-.72,2.39-1.12,3.62s-.83,2.49-1.27,3.76l-1.35,3.93h7.48L898.93,50C898.5,48.76,898.09,47.54,897.72,46.3Z" transform="translate(-12.25 -5)"/><path class="cls-1" d="M278.12,46.3c-.38-1.23-.73-2.47-1.08-3.71h0c-.34,1.18-.72,2.39-1.12,3.62s-.83,2.49-1.27,3.76l-1.35,3.93h7.48L279.33,50C278.9,48.76,278.49,47.54,278.12,46.3Z" transform="translate(-12.25 -5)"/><path class="cls-1" d="M867.93,40.81H864.7v8.84h2.53a7.59,7.59,0,0,0,4.14-1A3.76,3.76,0,0,0,873,45.23,4.17,4.17,0,0,0,871.7,42,5.51,5.51,0,0,0,867.93,40.81Z" transform="translate(-12.25 -5)"/><path class="cls-1" d="M549.27,40.81H546v8.84h2.53a7.59,7.59,0,0,0,4.14-1,3.76,3.76,0,0,0,1.61-3.42A4.14,4.14,0,0,0,553,42,5.46,5.46,0,0,0,549.27,40.81Z" transform="translate(-12.25 -5)"/><path class="cls-1" d="M702.87,43.26a9.53,9.53,0,0,0-6.78-2.36h-3V60.45h2.2A14.8,14.8,0,0,0,699.1,60a8,8,0,0,0,5.5-4.87,12.93,12.93,0,0,0,.84-5C705.41,47.12,704.56,44.84,702.87,43.26Z" transform="translate(-12.25 -5)"/><path class="cls-1" d="M525.47,42.8a6.77,6.77,0,0,0-2.5-1.9,7.84,7.84,0,0,0-3.06-.6,6.9,6.9,0,0,0-3,.65,6.75,6.75,0,0,0-2.43,1.94,9.68,9.68,0,0,0-1.64,3.25,15.43,15.43,0,0,0-.61,4.58,14.69,14.69,0,0,0,.63,4.56,9.66,9.66,0,0,0,1.71,3.23,6.8,6.8,0,0,0,2.5,1.91,7.49,7.49,0,0,0,6.06,0,6.36,6.36,0,0,0,2.45-1.91,9.58,9.58,0,0,0,1.64-3.23,15.3,15.3,0,0,0,.61-4.56,15.35,15.35,0,0,0-.63-4.67A9.53,9.53,0,0,0,525.47,42.8Z" transform="translate(-12.25 -5)"/><path class="cls-1" d="M406,46.3c-.38-1.23-.74-2.47-1.08-3.71h-.09c-.35,1.18-.72,2.39-1.12,3.62s-.83,2.49-1.27,3.76l-1.35,3.93h7.48l-1.4-3.9C406.73,48.76,406.33,47.54,406,46.3Z" transform="translate(-12.25 -5)"/><path class="cls-1" d="M494.05,41.88a6.75,6.75,0,0,0-3.93-1.07H487v9h2.62a12.81,12.81,0,0,0,2.31-.21,5.31,5.31,0,0,0,1.92-.75,3.91,3.91,0,0,0,1.28-1.4,4.47,4.47,0,0,0,.47-2.18A3.81,3.81,0,0,0,494.05,41.88Z" transform="translate(-12.25 -5)"/><path class="cls-1" d="M347.74,42.8a6.77,6.77,0,0,0-2.5-1.9,7.84,7.84,0,0,0-3.06-.6,6.9,6.9,0,0,0-3,.65,6.75,6.75,0,0,0-2.43,1.94,9.68,9.68,0,0,0-1.64,3.25,15.43,15.43,0,0,0-.61,4.58,14.69,14.69,0,0,0,.63,4.56,9.66,9.66,0,0,0,1.71,3.23,6.8,6.8,0,0,0,2.5,1.91,7.49,7.49,0,0,0,6.06,0,6.36,6.36,0,0,0,2.45-1.91,9.58,9.58,0,0,0,1.64-3.23,15.3,15.3,0,0,0,.61-4.56,15.35,15.35,0,0,0-.63-4.67A9.53,9.53,0,0,0,347.74,42.8Z" transform="translate(-12.25 -5)"/><path class="cls-1" d="M56.25,46.3c-.38-1.23-.73-2.47-1.08-3.71h-.09c-.34,1.18-.72,2.39-1.12,3.62S53.13,48.7,52.69,50L51.34,53.9h7.48L57.46,50C57,48.76,56.62,47.54,56.25,46.3Z" transform="translate(-12.25 -5)"/><path class="cls-1" d="M1078.16,42.8a6.77,6.77,0,0,0-2.5-1.9,7.89,7.89,0,0,0-3.07-.6,7,7,0,0,0-3,.65,6.86,6.86,0,0,0-2.43,1.94,9.84,9.84,0,0,0-1.63,3.25,15.43,15.43,0,0,0-.61,4.58,14.69,14.69,0,0,0,.63,4.56,9.66,9.66,0,0,0,1.71,3.23,6.8,6.8,0,0,0,2.5,1.91,7.49,7.49,0,0,0,6.06,0,6.36,6.36,0,0,0,2.45-1.91,9.86,9.86,0,0,0,1.64-3.23,15.3,15.3,0,0,0,.61-4.56,15.06,15.06,0,0,0-.64-4.67A9.59,9.59,0,0,0,1078.16,42.8Z" transform="translate(-12.25 -5)"/><path class="cls-1" d="M42.89,5,12.25,90H1255.37L1286,5ZM62.65,65.4l-2.29-6.78H49.89L47.6,65.4H40.91L51.91,36h6.64L69.44,65.4Zm35.4,0H92.21L82.76,51.1c-.4-.63-.8-1.27-1.19-1.94s-.76-1.32-1.1-1.94-.65-1.2-.91-1.71A12.48,12.48,0,0,1,79,44.22h-.09c.16,2.15.24,4.22.26,6.2s0,4,0,6V65.4h-6V36H79L89.15,51.52c.68,1.06,1.31,2.1,1.89,3.11A25.23,25.23,0,0,1,92.28,57h.09c-.18-2-.28-4-.28-6.05V36H98Zm23.61,0h-6.4V36h6.4Zm31.38,0h-5.85l-9.44-14.3c-.41-.63-.8-1.27-1.19-1.94s-.76-1.32-1.1-1.94-.65-1.2-.91-1.71a10.68,10.68,0,0,1-.59-1.29h-.09c.15,2.15.24,4.22.25,6.2s0,4,0,6V65.4h-6V36H134l10.14,15.52c.69,1.06,1.32,2.1,1.9,3.11A25.23,25.23,0,0,1,147.28,57h.09q-.28-3-.28-6.05V36H153ZM179.6,41h-8.33V65.4h-6.4V41h-8.14V36H179.6Zm23,24.4H183.24V36h19.18v5H189.65v6.74H201.2V52.6H189.65v7.9h12.91Zm20.29,0-5.66-10.84h-3.41V65.4h-6.36V36h11.17a12.32,12.32,0,0,1,4.38.72,9,9,0,0,1,3.15,2,7.87,7.87,0,0,1,1.9,2.89,9.93,9.93,0,0,1,.63,3.58,8.54,8.54,0,0,1-1.9,5.54A8.35,8.35,0,0,1,225,52.42,13.2,13.2,0,0,1,223,53.51l7.2,12Zm36.14,0h-5.84l-9.45-14.3c-.4-.63-.8-1.27-1.19-1.94s-.75-1.32-1.1-1.94-.65-1.2-.91-1.71a12.4,12.4,0,0,1-.58-1.29h-.1c.16,2.15.24,4.22.26,6.2s0,4,0,6V65.4h-6V36H240l10.15,15.52c.68,1.06,1.32,2.1,1.89,3.11s1,1.8,1.24,2.36h.1c-.19-2-.29-4-.28-6.05V36H259Zm25.53,0-2.29-6.78H271.76l-2.29,6.78h-6.69l11-29.45h6.64L291.3,65.4Zm28-24.4h-8.33V65.4h-6.4V41h-8.14V36h22.87Zm10,24.4h-6.41V36h6.41Zm33.2-8.32a13.91,13.91,0,0,1-3.09,4.77,13.48,13.48,0,0,1-4.65,3,15.82,15.82,0,0,1-5.82,1,16.39,16.39,0,0,1-5.8-1A12.57,12.57,0,0,1,331.8,62a13.77,13.77,0,0,1-3-4.77,17.88,17.88,0,0,1-1.1-6.48,17.37,17.37,0,0,1,1.12-6.38,14.11,14.11,0,0,1,3.09-4.82,13.57,13.57,0,0,1,4.65-3,17,17,0,0,1,11.62,0,12.83,12.83,0,0,1,4.58,3,13.76,13.76,0,0,1,3,4.79,18,18,0,0,1,1.1,6.5,16.91,16.91,0,0,1-1.12,6.29Zm31.09,8.32H381l-9.45-14.3c-.4-.63-.8-1.27-1.19-1.94s-.76-1.32-1.1-1.94-.65-1.2-.91-1.71a12.48,12.48,0,0,1-.59-1.29h-.09c.16,2.15.24,4.22.26,6.2s0,4,0,6V65.4h-6V36h5.84L378,51.47c.68,1.06,1.31,2.1,1.89,3.11a25.23,25.23,0,0,1,1.24,2.36h.09c-.18-2-.28-4-.28-6V36h5.94Zm25.53,0-2.29-6.78H399.6l-2.29,6.78h-6.69l11-29.45h6.64L419.15,65.4Zm28.81,0H422.88V36h6.41V60.4h11.88Zm33.66-5a7.89,7.89,0,0,1-2.1,2.85,10.46,10.46,0,0,1-3.51,1.92,15.44,15.44,0,0,1-4.91.7,21.76,21.76,0,0,1-9.68-2.15L456.1,59A24,24,0,0,0,460,60.52a15,15,0,0,0,4,.54,6.31,6.31,0,0,0,3.74-.92,3.17,3.17,0,0,0,1-3.64,2.69,2.69,0,0,0-.77-1,7,7,0,0,0-1.52-1,15,15,0,0,0-2.5-1l-2.48-.84a19.05,19.05,0,0,1-3-1.31,10,10,0,0,1-2.32-1.73,7.2,7.2,0,0,1-1.49-2.32,8.25,8.25,0,0,1-.54-3.11,8.76,8.76,0,0,1,.7-3.53A7.6,7.6,0,0,1,457,37.88a9.74,9.74,0,0,1,3.42-1.82A15,15,0,0,1,465,35.4a20.91,20.91,0,0,1,5.05.56A19.5,19.5,0,0,1,474,37.41l-1.45,4.77a21.24,21.24,0,0,0-3.7-1.42,12.68,12.68,0,0,0-3.46-.49,5.93,5.93,0,0,0-3.48.88,2.81,2.81,0,0,0-1.24,2.39,2.71,2.71,0,0,0,1.08,2.34,12.21,12.21,0,0,0,3.46,1.54l2.8.89a12.72,12.72,0,0,1,5.5,3.32,7.48,7.48,0,0,1,2,5.28,8.79,8.79,0,0,1-.68,3.54Zm26.42-11.13a8.49,8.49,0,0,1-2.55,3A11.19,11.19,0,0,1,495,54.09a17.36,17.36,0,0,1-4.59.59H487v10.7h-6.41V36h10.34a16.58,16.58,0,0,1,4.65.6,10.32,10.32,0,0,1,3.55,1.78,8.11,8.11,0,0,1,2.27,2.83,8.63,8.63,0,0,1,.79,3.81,9.4,9.4,0,0,1-.94,4.3Zm32.22,7.76a13.91,13.91,0,0,1-3.09,4.77,13.48,13.48,0,0,1-4.65,3,16,16,0,0,1-5.82,1,16.39,16.39,0,0,1-5.8-1,12.55,12.55,0,0,1-4.58-2.94,13.77,13.77,0,0,1-3-4.77,17.88,17.88,0,0,1-1.1-6.48,17.37,17.37,0,0,1,1.12-6.38,14.11,14.11,0,0,1,3.09-4.82,13.57,13.57,0,0,1,4.65-3,17,17,0,0,1,11.62-.05,12.83,12.83,0,0,1,4.58,3,13.76,13.76,0,0,1,3,4.79,18,18,0,0,1,1.1,6.5,17.19,17.19,0,0,1-1.14,6.38Zm21.65,8.32-5.66-10.84H546V65.4h-6.35V36h11.17a12.26,12.26,0,0,1,4.37.72,9,9,0,0,1,3.16,2,8,8,0,0,1,1.89,2.89,9.93,9.93,0,0,1,.63,3.58,8.71,8.71,0,0,1-.53,3.16A9.07,9.07,0,0,1,559,50.73a8.58,8.58,0,0,1-1.82,1.69,13.2,13.2,0,0,1-1.94,1.09l7.2,12ZM586.26,41h-8.33V65.4h-6.4V41h-8.14V36h22.87Zm23,19.45a7.92,7.92,0,0,1-2.11,2.85,10,10,0,0,1-3.51,1.92,15.34,15.34,0,0,1-4.9.7,21.76,21.76,0,0,1-9.68-2.15L590.51,59a23.9,23.9,0,0,0,3.92,1.52,15,15,0,0,0,4,.54,6.36,6.36,0,0,0,3.75-.92,3.13,3.13,0,0,0,1.05-3.64,2.8,2.8,0,0,0-.77-1,7.4,7.4,0,0,0-1.52-1,15.44,15.44,0,0,0-2.51-1L596,52.66a19.05,19.05,0,0,1-3-1.31,10,10,0,0,1-2.31-1.73,7.07,7.07,0,0,1-1.5-2.32,8.05,8.05,0,0,1-.53-3.11,8.76,8.76,0,0,1,.7-3.53,7.52,7.52,0,0,1,2.08-2.78,9.61,9.61,0,0,1,3.41-1.82,15.29,15.29,0,0,1,4.65-.66,20.56,20.56,0,0,1,5,.56,18.92,18.92,0,0,1,3.93,1.45L607,42.21a21.14,21.14,0,0,0-3.69-1.42,13.08,13.08,0,0,0-3.46-.49,5.94,5.94,0,0,0-3.49.88,2.82,2.82,0,0,0-1.24,2.39,2.71,2.71,0,0,0,1.08,2.34,12.21,12.21,0,0,0,3.46,1.54l2.81.89A12.84,12.84,0,0,1,608,51.66a7.48,7.48,0,0,1,2,5.28,9,9,0,0,1-.74,3.51Zm35.58,5-2.29-6.78H632l-2.29,6.78H623L634,36h6.64l10.9,29.45Zm35.4,0h-5.85L665,51.1c-.41-.63-.81-1.27-1.2-1.94s-.75-1.32-1.1-1.94l-.91-1.71a12.4,12.4,0,0,1-.58-1.29h-.1c.16,2.15.25,4.21.26,6.2v15h-6V36h5.84l10.15,15.52c.69,1.06,1.32,2.1,1.9,3.11A22.5,22.5,0,0,1,674.44,57h.1c-.19-2-.29-4-.28-6.05V36h5.94ZM710.91,57a13.26,13.26,0,0,1-3.55,4.77,14.28,14.28,0,0,1-5.26,2.79,22.66,22.66,0,0,1-6.39.88h-9V36H697a20.41,20.41,0,0,1,6.21.88A13.52,13.52,0,0,1,708,39.55,12,12,0,0,1,711.14,44a16,16,0,0,1,1.1,6.15A16.62,16.62,0,0,1,710.87,57Zm23.24-1.73a8.81,8.81,0,0,0,1.94,3.21,8,8,0,0,0,2.9,1.89,9.88,9.88,0,0,0,3.57.63,15.44,15.44,0,0,0,3.65-.37,9.15,9.15,0,0,0,2.57-1l1.31,4.68a12.37,12.37,0,0,1-3.18,1.16,20.53,20.53,0,0,1-5,.52,17.29,17.29,0,0,1-6.13-1,13.42,13.42,0,0,1-8-7.86,17,17,0,0,1-1.12-6.38,17,17,0,0,1,1.1-6.27,13.21,13.21,0,0,1,7.92-7.85A17.91,17.91,0,0,1,742,35.51a18.21,18.21,0,0,1,4.93.56,17.06,17.06,0,0,1,3.16,1.22L748.68,42a15.35,15.35,0,0,0-2.69-1.1,12.18,12.18,0,0,0-6.9.12,7.46,7.46,0,0,0-2.94,1.8,8.75,8.75,0,0,0-2,3.18,15.53,15.53,0,0,0,0,9.3Zm45-1.56q0,6.16-3.07,9.21t-9.09,3q-5.81,0-9.12-3c-2.21-2-3.32-5.17-3.32-9.45V36H761V53.62a9,9,0,0,0,1.47,5.55A5.45,5.45,0,0,0,767,61a5,5,0,0,0,4.39-1.92,8.35,8.35,0,0,0,1.36-5V36h6.41ZM803.84,65.4H785.55V36H792V60.4h11.88Zm20-24.4h-8.32V65.4h-6.41V41H801V36h22.86ZM852,53.67q0,6.16-3.06,9.21t-9.1,3q-5.79,0-9.12-3c-2.21-2-3.32-5.17-3.32-9.45V36h6.41V53.62a9,9,0,0,0,1.47,5.55,5.44,5.44,0,0,0,4.56,1.89,5,5,0,0,0,4.4-1.92,8.41,8.41,0,0,0,1.35-5V36H852ZM873.83,65.4l-5.66-10.84h-3.42V65.4H858.4V36h11.17a12.26,12.26,0,0,1,4.37.72,9,9,0,0,1,3.16,2A8,8,0,0,1,879,41.61a9.93,9.93,0,0,1,.63,3.58,8.52,8.52,0,0,1-3.71,7.23A13.2,13.2,0,0,1,874,53.51l7.2,12Zm30.34,0-2.29-6.78H891.41l-2.29,6.78h-6.69l11-29.45H900L910.89,65.4Zm28.81,0H914.69V36h6.41V60.4H933Zm35-16.08a8.68,8.68,0,0,1-2.55,3,11.19,11.19,0,0,1-3.76,1.77,17.36,17.36,0,0,1-4.59.59h-3.36v10.7h-6.41V36h10.33a16.7,16.7,0,0,1,4.66.6,10.32,10.32,0,0,1,3.55,1.78,8.11,8.11,0,0,1,2.27,2.83,8.63,8.63,0,0,1,.79,3.81,9.41,9.41,0,0,1-.91,4.3Zm29.5,16.08h-6.4V52.69H979.9V65.4h-6.4V36h6.4V47.69h11.18V36h6.4Zm25.81,0H1004V36h19.17v5h-12.76v6.74H1022V52.6h-11.55v7.9h12.9Zm29.74,0h-5.84l-9.45-14.3c-.4-.63-.8-1.27-1.19-1.94s-.76-1.32-1.1-1.94-.65-1.2-.91-1.71a12.48,12.48,0,0,1-.59-1.29h-.09c.16,2.15.24,4.22.26,6.2s0,4,0,6V65.4h-6V36H1034l10.15,15.52c.68,1.06,1.31,2.1,1.89,3.11a25.23,25.23,0,0,1,1.24,2.36h.09c-.18-2-.28-4-.28-6.05V36H1053Zm33.15-8.32a13.94,13.94,0,0,1-3.08,4.77,13.48,13.48,0,0,1-4.65,3,16.08,16.08,0,0,1-5.83,1,16.34,16.34,0,0,1-5.79-1,12.72,12.72,0,0,1-4.59-2.94,13.77,13.77,0,0,1-3-4.77,17.67,17.67,0,0,1-1.1-6.48,17,17,0,0,1,1.12-6.38,14.11,14.11,0,0,1,3.09-4.82,13.57,13.57,0,0,1,4.65-3,17,17,0,0,1,11.62-.05,13.06,13.06,0,0,1,4.58,3,13.76,13.76,0,0,1,3,4.79,18,18,0,0,1,1.1,6.5,17,17,0,0,1-1.15,6.38Zm32.92,8.32q-.27-4.86-.56-9.72c-.19-3.24-.31-6.52-.37-9.82l-.05-3.83H1118c-.41,1.71-.86,3.5-1.33,5.37s-.93,3.5-1.38,4.91l-4.16,13.09h-5l-4.26-13.13c-.53-1.69-1-3.46-1.49-5.34s-.84-3.5-1.12-4.9h-.14v3.53c0,1.24-.07,2.45-.12,3.67s-.09,2.4-.14,3.57-.1,2.24-.16,3.21l-.56,9.39h-5.94L1094.3,36h8.09l4.21,13.42c.19.59.38,1.23.59,1.91s.39,1.38.58,2.06.36,1.36.51,2,.28,1.26.38,1.83h.18c.1-.5.22-1.09.38-1.76s.33-1.36.51-2.08l.56-2.1c.19-.69.36-1.31.52-1.87l4.07-13.42H1123l2.19,29.45Zm31.56,0h-19.31V36h19.17v5h-12.76v6.74h11.55V52.6h-11.55v7.9h12.9Zm29.74,0h-5.84l-9.45-14.3c-.4-.63-.8-1.27-1.19-1.94s-.76-1.32-1.1-1.94-.65-1.2-.91-1.71a12.48,12.48,0,0,1-.59-1.29h-.09c.16,2.15.24,4.22.26,6.2s0,4,0,6V65.4h-6V36h5.84l10.15,15.52c.68,1.06,1.31,2.1,1.89,3.11a25.23,25.23,0,0,1,1.24,2.36h.09c-.18-2-.28-4-.28-6.05V36h5.94Zm33.15-8.32a13.94,13.94,0,0,1-3.08,4.77,13.48,13.48,0,0,1-4.65,3,16.08,16.08,0,0,1-5.83,1,16.34,16.34,0,0,1-5.79-1,12.72,12.72,0,0,1-4.59-2.94,14.07,14.07,0,0,1-3-4.77,17.88,17.88,0,0,1-1.1-6.48,17,17,0,0,1,1.12-6.38,14.26,14.26,0,0,1,3.09-4.82,13.57,13.57,0,0,1,4.65-3,17,17,0,0,1,11.62-.05,13.06,13.06,0,0,1,4.58,3,13.61,13.61,0,0,1,3,4.79,18,18,0,0,1,1.1,6.5,17,17,0,0,1-1.15,6.38Zm31.1,8.32h-5.85l-9.44-14.3c-.41-.63-.8-1.27-1.19-1.94s-.76-1.32-1.1-1.94-.65-1.2-.91-1.71a12.48,12.48,0,0,1-.59-1.29h-.09c.15,2.15.23,4.21.26,6.2s0,4,0,6V65.4h-6V36h5.85l10.14,15.52c.69,1.06,1.32,2.1,1.9,3.11a25.23,25.23,0,0,1,1.24,2.36h.09c-.19-2-.29-4-.28-6.05V36h5.94Z" transform="translate(-12.25 -5)"/><path class="cls-1" d="M1205.53,42.8a6.77,6.77,0,0,0-2.5-1.9,7.89,7.89,0,0,0-3.07-.6,6.9,6.9,0,0,0-3,.65,6.78,6.78,0,0,0-2.44,1.94,9.84,9.84,0,0,0-1.63,3.25,15.43,15.43,0,0,0-.61,4.58,14.69,14.69,0,0,0,.63,4.56,9.66,9.66,0,0,0,1.71,3.23,6.8,6.8,0,0,0,2.5,1.91,7.49,7.49,0,0,0,6.06,0,6.36,6.36,0,0,0,2.45-1.91,9.86,9.86,0,0,0,1.64-3.23,17.42,17.42,0,0,0,0-9.23A9.55,9.55,0,0,0,1205.53,42.8Z" transform="translate(-12.25 -5)"/><path class="cls-1" d="M217,40.81h-3.22v8.84h2.52a7.59,7.59,0,0,0,4.14-1,3.73,3.73,0,0,0,1.61-3.42A4.1,4.1,0,0,0,220.77,42,5.51,5.51,0,0,0,217,40.81Z" transform="translate(-12.25 -5)"/></svg>