<svg id="Layer_1" data-name="Layer 1" xmlns="http://www.w3.org/2000/svg" xmlns:xlink="http://www.w3.org/1999/xlink" viewBox="0 0 216 216"><defs><style>.cls-1{fill:none;}.cls-2{clip-path:url(#clip-path);}.cls-3{fill:#ff2f56;}</style><clipPath id="clip-path"><rect class="cls-1" x="47.49" y="47.49" width="121.02" height="121.02" transform="translate(-44.74 108) rotate(-45)"/></clipPath></defs><title>Red Dots</title><g class="cls-2"><path class="cls-3" d="M81.27,104.6h0S81.28,104.6,81.27,104.6Z"/><path class="cls-3" d="M84,106.33h0v0h0Z"/><path class="cls-3" d="M84.4,109.57h0s0,0,0,0h0S84.41,109.58,84.4,109.57Z"/><path class="cls-3" d="M82.1,111.88h0v0h0Z"/><circle class="cls-3" cx="81.69" cy="100.87" r="0.01"/><circle class="cls-3" cx="84.85" cy="101.97" r="0.01"/><path class="cls-3" d="M87.23,104.32h0a0,0,0,0,0,0,0,0,0,0,0,0,0,0S87.24,104.33,87.23,104.32Z"/><path class="cls-3" d="M88.33,107.48s0,0,0,0v0h0A0,0,0,0,0,88.33,107.48Z"/><path class="cls-3" d="M88,110.81a0,0,0,0,0,0,0,0,0,0,0,0,0,0h0A0,0,0,0,0,88,110.81Z"/><circle class="cls-3" cx="86.16" cy="113.66" r="0.02"/><path class="cls-3" d="M83.34,115.43h0s0,0,0,0Z"/><circle class="cls-3" cx="82.11" cy="97.13" r="0.01"/><circle class="cls-3" cx="85.36" cy="98" r="0.01"/><path class="cls-3" d="M88.22,99.77h0s0,0,0,0a0,0,0,0,0,0,0S88.23,99.78,88.22,99.77Z"/><path class="cls-3" d="M90.42,102.32a0,0,0,0,0,0,0,0,0,0,0,0,0,0,0,0,0,0,0,0,0A0,0,0,0,0,90.38,102.36Z"/><path class="cls-3" d="M91.76,105.4a0,0,0,0,0,0,0,0,0,0,0,0,0,0,0,0,0,0,0,0,0A0,0,0,0,0,91.76,105.4Z"/><path class="cls-3" d="M92.15,108.73a.06.06,0,0,0-.06,0,0,0,0,0,0,.06.06A.06.06,0,0,0,92.15,108.73Z"/><circle class="cls-3" cx="91.49" cy="112.06" r="0.03"/><path class="cls-3" d="M89.94,115a0,0,0,0,0,0,0,0,0,0,0,0,0,0h0A0,0,0,0,0,89.94,115Z"/><path class="cls-3" d="M87.56,117.4a0,0,0,0,0,0,0,0,0,0,0,0,0,0h0A0,0,0,0,0,87.56,117.4Z"/><path class="cls-3" d="M84.58,119h0s0,0,0,0Z"/><circle class="cls-3" cx="81.27" cy="119.61" r="0.01"/><path class="cls-3" d="M82.54,93.39s0,0,0,0h0Z"/><circle class="cls-3" cx="85.81" cy="94.14" r="0.01"/><path class="cls-3" d="M88.86,95.59a0,0,0,0,0,0,0v0h0A0,0,0,0,0,88.86,95.59Z"/><path class="cls-3" d="M91.5,97.68a0,0,0,0,0,0,0,0,0,0,0,0,0,0h0S91.52,97.69,91.5,97.68Z"/><path class="cls-3" d="M93.61,100.31a0,0,0,0,0-.06,0,.06.06,0,0,0,0,.06h.06S93.63,100.32,93.61,100.31Z"/><path class="cls-3" d="M95.08,103.33a0,0,0,0,0-.07,0,.06.06,0,0,0,0,.08,0,0,0,0,0,.07,0A.06.06,0,0,0,95.08,103.33Z"/><path class="cls-3" d="M95.83,106.62a0,0,0,0,0-.07,0,0,0,0,0,0,0,.07,0,0,0,0,0,.07-.07Z"/><path class="cls-3" d="M95.83,110a0,0,0,0,0-.07,0,0,0,0,0,0,0,.07,0,0,0,1,0,.07-.07Z"/><path class="cls-3" d="M95.08,113.27a0,0,0,1,0,0,.07A0,0,0,0,0,95.08,113.27Z"/><path class="cls-3" d="M93.61,116.31a0,0,0,0,0-.06.06,0,0,0,0,0,.06-.06Z"/><path class="cls-3" d="M91.5,119a0,0,0,0,0,0,0,0,0,0,0,0,0,0,0,0,0,0,0,0,0S91.52,119,91.5,119Z"/><path class="cls-3" d="M88.86,121.06a0,0,0,0,0,0,0v0h0A0,0,0,0,0,88.86,121.06Z"/><circle class="cls-3" cx="85.81" cy="122.54" r="0.01"/><path class="cls-3" d="M82.54,123.28s0,0,0,0h0Z"/><circle class="cls-3" cx="82.95" cy="89.66" r="0.01"/><circle class="cls-3" cx="86.25" cy="90.33" r="0.02"/><path class="cls-3" d="M89.4,91.57h0a0,0,0,0,0,0,0s0,0,0,0Z"/><path class="cls-3" d="M92.26,93.35h-.05a0,0,0,0,0,0,.06,0,0,0,0,0,.05,0A0,0,0,0,0,92.26,93.35Z"/><path class="cls-3" d="M94.76,95.62a0,0,0,1,0,0,.07A0,0,0,0,0,94.76,95.62Z"/><path class="cls-3" d="M96.81,98.29a.06.06,0,0,0-.09.09.06.06,0,0,0,.09,0A.07.07,0,0,0,96.81,98.29Z"/><circle class="cls-3" cx="98.3" cy="101.34" r="0.07"/><path class="cls-3" d="M99.32,104.52a.08.08,0,0,0-.11,0,.07.07,0,0,0,0,.1.08.08,0,0,0,.11,0A.09.09,0,0,0,99.32,104.52Z"/><path class="cls-3" d="M99.7,107.86a.08.08,0,1,0,0,.12A.09.09,0,0,0,99.7,107.86Z"/><path class="cls-3" d="M99.47,111.22a.08.08,0,0,0-.11,0,.08.08,0,0,0,0,.12.08.08,0,0,0,.11,0A.07.07,0,0,0,99.47,111.22Z"/><circle class="cls-3" cx="98.59" cy="114.55" r="0.07"/><path class="cls-3" d="M97.24,117.57a.06.06,0,1,0-.09.09.06.06,0,0,0,.09-.09Z"/><path class="cls-3" d="M95.32,120.35a.06.06,0,0,0-.08,0,0,0,0,0,0,0,.07s.05,0,.08,0A0,0,0,0,0,95.32,120.35Z"/><path class="cls-3" d="M92.92,122.74h0a0,0,0,0,0,0,.06,0,0,0,0,0,0,0A0,0,0,0,0,92.92,122.74Z"/><path class="cls-3" d="M90.15,124.67a0,0,0,0,0-.05,0,0,0,0,0,0,0,0s0,0,.05,0A0,0,0,0,0,90.15,124.67Z"/><path class="cls-3" d="M87.07,126.07h0a0,0,0,0,0,0,0,0,0,0,0,0,0,0A0,0,0,0,0,87.07,126.07Z"/><path class="cls-3" d="M83.79,126.9h0v0h0S83.8,126.9,83.79,126.9Z"/><path class="cls-3" d="M83.38,85.91h0v0h0Z"/><path class="cls-3" d="M86.7,86.53a0,0,0,0,0,0,0,0,0,0,0,0,0,0h0A0,0,0,0,0,86.7,86.53Z"/><path class="cls-3" d="M89.89,87.64a0,0,0,0,0,0,0,0,0,0,0,0,0,0,0,0,0,0,0,0,0A0,0,0,0,0,89.89,87.64Z"/><path class="cls-3" d="M92.88,89.21a0,0,0,0,0-.06,0s0,0,0,.06a.06.06,0,0,0,.06,0A.06.06,0,0,0,92.88,89.21Z"/><path class="cls-3" d="M95.6,91.2a0,0,0,0,0-.07,0,0,0,0,0,0,0,.08,0,0,0,0,0,.07,0A.06.06,0,0,0,95.6,91.2Z"/><circle class="cls-3" cx="97.95" cy="93.62" r="0.07"/><path class="cls-3" d="M100,96.28a.08.08,0,0,0-.12,0,.08.08,0,1,0,.12,0Z"/><path class="cls-3" d="M101.59,99.25a.09.09,0,1,0,0,.13A.09.09,0,0,0,101.59,99.25Z"/><path class="cls-3" d="M102.71,102.43a.11.11,0,0,0-.15,0,.1.1,0,0,0,0,.14.11.11,0,0,0,.15,0A.1.1,0,0,0,102.71,102.43Z"/><path class="cls-3" d="M103.34,105.74a.11.11,0,1,0,0,.15A.11.11,0,0,0,103.34,105.74Z"/><path class="cls-3" d="M103.46,109.11a.1.1,0,0,0-.14,0,.11.11,0,0,0,0,.15.1.1,0,0,0,.14,0A.09.09,0,0,0,103.46,109.11Z"/><path class="cls-3" d="M103.09,112.46a.11.11,0,1,0,0,.15A.11.11,0,0,0,103.09,112.46Z"/><path class="cls-3" d="M102.21,115.72a.1.1,0,1,0,0,.14A.12.12,0,0,0,102.21,115.72Z"/><circle class="cls-3" cx="100.79" cy="118.88" r="0.08"/><path class="cls-3" d="M99.05,121.68a.09.09,0,0,0-.1,0,.08.08,0,0,0,0,.11.07.07,0,0,0,.1,0A.08.08,0,0,0,99.05,121.68Z"/><path class="cls-3" d="M96.84,124.25a.06.06,0,0,0-.09,0,.06.06,0,0,0,.09.09A.06.06,0,0,0,96.84,124.25Z"/><circle class="cls-3" cx="94.24" cy="126.49" r="0.05"/><path class="cls-3" d="M91.41,128.26h0s0,0,0,.05h0A0,0,0,0,0,91.41,128.26Z"/><path class="cls-3" d="M88.31,129.62h0a0,0,0,0,0,0,0h0A0,0,0,0,0,88.31,129.62Z"/><circle class="cls-3" cx="85.04" cy="130.51" r="0.01"/><circle class="cls-3" cx="81.69" cy="130.88" r="0.01"/><path class="cls-3" d="M83.8,82.18s0,0,0,0,0,0,0,0,0,0,0,0Z"/><path class="cls-3" d="M87.13,82.76a0,0,0,0,0,0,0,0,0,0,0,0,0,0h0A0,0,0,0,0,87.13,82.76Z"/><path class="cls-3" d="M90.35,83.77a0,0,0,0,0,0,0,0,0,0,0,0,0,0h0A0,0,0,0,0,90.35,83.77Z"/><path class="cls-3" d="M93.42,85.17a.06.06,0,0,0-.06,0,.06.06,0,0,0,0,.06s0,0,.06,0A0,0,0,0,0,93.42,85.17Z"/><path class="cls-3" d="M96.29,87a.06.06,0,1,0,0,.09A.06.06,0,0,0,96.29,87Z"/><circle class="cls-3" cx="98.85" cy="89.14" r="0.07"/><circle class="cls-3" cx="101.16" cy="91.6" r="0.09"/><path class="cls-3" d="M103.21,94.26a.11.11,0,1,0,0,.15A.11.11,0,0,0,103.21,94.26Z"/><path class="cls-3" d="M104.82,97.22a.11.11,0,1,0,0,.16A.1.1,0,0,0,104.82,97.22Z"/><path class="cls-3" d="M106,100.36a.11.11,0,0,0-.17,0,.13.13,0,0,0,0,.18.14.14,0,0,0,.17,0A.13.13,0,0,0,106,100.36Z"/><circle class="cls-3" cx="106.76" cy="103.72" r="0.14"/><circle class="cls-3" cx="107.14" cy="107.07" r="0.14"/><path class="cls-3" d="M107.18,110.35a.14.14,0,0,0-.19,0,.13.13,0,0,0,.19.19A.14.14,0,0,0,107.18,110.35Z"/><path class="cls-3" d="M106.69,113.69a.13.13,0,1,0,0,.19A.12.12,0,0,0,106.69,113.69Z"/><path class="cls-3" d="M105.78,116.94a.15.15,0,0,0-.18,0,.13.13,0,1,0,.18,0Z"/><path class="cls-3" d="M104.46,120.06a.12.12,0,0,0-.17,0,.12.12,0,0,0,0,.16.14.14,0,0,0,.17,0A.12.12,0,0,0,104.46,120.06Z"/><path class="cls-3" d="M102.75,123a.11.11,0,0,0-.15,0,.1.1,0,0,0,0,.14.11.11,0,0,0,.15,0A.1.1,0,0,0,102.75,123Z"/><circle class="cls-3" cx="100.61" cy="125.72" r="0.08"/><circle class="cls-3" cx="98.23" cy="128.1" r="0.07"/><path class="cls-3" d="M95.59,130.13a0,0,0,1,0,0,.07A0,0,0,0,0,95.59,130.13Z"/><path class="cls-3" d="M92.67,131.84a0,0,0,0,0,0,0s0,0,0,.06h0S92.69,131.85,92.67,131.84Z"/><circle class="cls-3" cx="89.54" cy="133.18" r="0.02"/><circle class="cls-3" cx="86.29" cy="134.09" r="0.02"/><path class="cls-3" d="M83,134.57h0s0,0,0,0h0Z"/><circle class="cls-3" cx="84.21" cy="78.45" r="0.01"/><path class="cls-3" d="M87.55,79s0,0,0,0a0,0,0,0,0,0,0s0,0,0,0A0,0,0,0,0,87.55,79Z"/><path class="cls-3" d="M90.8,79.92a0,0,0,0,0,0,0,0,0,0,0,0,0,0,0,0,0,0,0,0,0S90.82,79.94,90.8,79.92Z"/><circle class="cls-3" cx="93.9" cy="81.24" r="0.05"/><circle class="cls-3" cx="96.85" cy="82.87" r="0.06"/><circle class="cls-3" cx="99.6" cy="84.82" r="0.08"/><path class="cls-3" d="M102.18,87a.1.1,0,0,0-.13,0,.1.1,0,0,0,0,.14.1.1,0,0,0,.13,0A.1.1,0,0,0,102.18,87Z"/><path class="cls-3" d="M104.45,89.5a.12.12,0,1,0,0,.17A.14.14,0,0,0,104.45,89.5Z"/><path class="cls-3" d="M106.4,92.25a.12.12,0,1,0,0,.17A.11.11,0,0,0,106.4,92.25Z"/><path class="cls-3" d="M108.05,95.18a.15.15,0,1,0-.21.21.15.15,0,0,0,.21-.21Z"/><path class="cls-3" d="M109.35,98.29a.16.16,0,0,0-.22.22.14.14,0,0,0,.22,0A.16.16,0,0,0,109.35,98.29Z"/><circle class="cls-3" cx="110.17" cy="101.65" r="0.16"/><circle class="cls-3" cx="110.74" cy="104.97" r="0.17"/><path class="cls-3" d="M111,108.22a.17.17,0,0,0-.23,0,.16.16,0,0,0,0,.24.17.17,0,0,0,.23,0A.16.16,0,0,0,111,108.22Z"/><path class="cls-3" d="M110.86,111.59a.17.17,0,0,0-.24.24.17.17,0,1,0,.24-.24Z"/><circle class="cls-3" cx="110.17" cy="115.03" r="0.16"/><circle class="cls-3" cx="109.24" cy="118.27" r="0.16"/><path class="cls-3" d="M108.05,121.29a.15.15,0,0,0-.21,0,.15.15,0,0,0,0,.2.14.14,0,0,0,.21,0A.13.13,0,0,0,108.05,121.29Z"/><path class="cls-3" d="M106.4,124.25a.14.14,0,0,0-.17,0,.13.13,0,0,0,0,.18.11.11,0,0,0,.17,0A.13.13,0,0,0,106.4,124.25Z"/><path class="cls-3" d="M104.45,127a.12.12,0,1,0,0,.17A.14.14,0,0,0,104.45,127Z"/><path class="cls-3" d="M102.18,129.54a.1.1,0,0,0-.13,0,.1.1,0,0,0,0,.14.1.1,0,0,0,.13,0A.1.1,0,0,0,102.18,129.54Z"/><path class="cls-3" d="M99.66,131.8a.08.08,0,1,0,0,.12A.09.09,0,0,0,99.66,131.8Z"/><circle class="cls-3" cx="96.85" cy="133.81" r="0.06"/><path class="cls-3" d="M93.93,135.4a0,0,0,0,0-.07,0,.06.06,0,0,0,0,.08,0,0,0,0,0,.07,0A.06.06,0,0,0,93.93,135.4Z"/><path class="cls-3" d="M90.8,136.71a0,0,0,0,0,0,0,0,0,0,0,0,0,0,0,0,0,0,0,0,0A0,0,0,0,0,90.76,136.75Z"/><path class="cls-3" d="M87.55,137.65s0,0,0,0a0,0,0,0,0,0,0h0A0,0,0,0,0,87.55,137.65Z"/><circle class="cls-3" cx="84.21" cy="138.23" r="0.01"/><circle class="cls-3" cx="81.27" cy="74.5" r="0.01"/><path class="cls-3" d="M84.64,74.7h0s0,0,0,0h0S84.65,74.71,84.64,74.7Z"/><path class="cls-3" d="M88,75.24h0a0,0,0,0,0,0,0,0,0,0,0,0,0,0A0,0,0,0,0,88,75.24Z"/><path class="cls-3" d="M91.25,76.11s0,0,0,0a0,0,0,0,0,0,0h0A0,0,0,0,0,91.25,76.11Z"/><path class="cls-3" d="M94.42,77.29a.06.06,0,0,0-.08,0,0,0,0,0,0,0,.07.06.06,0,0,0,.08,0A0,0,0,0,0,94.42,77.29Z"/><path class="cls-3" d="M97.44,78.78a.06.06,0,0,0-.08,0,.06.06,0,0,0,0,.09.06.06,0,0,0,.08,0A.06.06,0,0,0,97.44,78.78Z"/><circle class="cls-3" cx="100.26" cy="80.62" r="0.08"/><path class="cls-3" d="M103,82.62a.08.08,0,0,0-.14,0,.1.1,0,1,0,.14,0Z"/><path class="cls-3" d="M105.45,84.93a.12.12,0,1,0,0,.17A.11.11,0,0,0,105.45,84.93Z"/><circle class="cls-3" cx="107.56" cy="87.57" r="0.14"/><circle class="cls-3" cx="109.5" cy="90.34" r="0.16"/><path class="cls-3" d="M111.27,93.16a.16.16,0,0,0-.24,0,.17.17,0,1,0,.24,0Z"/><path class="cls-3" d="M112.63,96.24a.18.18,0,1,0,0,.26A.17.17,0,0,0,112.63,96.24Z"/><path class="cls-3" d="M113.67,99.44a.19.19,0,0,0-.28,0,.21.21,0,0,0,0,.28.2.2,0,0,0,.28-.28Z"/><path class="cls-3" d="M114.39,102.73a.21.21,0,0,0-.29,0,.2.2,0,0,0,0,.3.21.21,0,0,0,.29,0A.22.22,0,0,0,114.39,102.73Z"/><path class="cls-3" d="M114.77,106.08a.21.21,0,1,0,0,.3A.22.22,0,0,0,114.77,106.08Z"/><path class="cls-3" d="M114.81,109.46a.21.21,0,0,0-.29,0,.19.19,0,0,0,0,.29.21.21,0,0,0,.29-.29Z"/><path class="cls-3" d="M114.52,112.82a.22.22,0,0,0-.3,0,.21.21,0,0,0,0,.29.22.22,0,0,0,.3,0A.21.21,0,0,0,114.52,112.82Z"/><path class="cls-3" d="M113.88,116.14a.2.2,0,1,0,0,.28A.19.19,0,0,0,113.88,116.14Z"/><path class="cls-3" d="M112.92,119.38a.19.19,0,0,0-.26,0,.18.18,0,0,0,0,.27.19.19,0,0,0,.26,0A.2.2,0,0,0,112.92,119.38Z"/><path class="cls-3" d="M111.64,122.52a.18.18,0,1,0,0,.25A.18.18,0,0,0,111.64,122.52Z"/><circle class="cls-3" cx="109.94" cy="125.62" r="0.16"/><circle class="cls-3" cx="108.07" cy="128.43" r="0.15"/><path class="cls-3" d="M106,131a.13.13,0,0,0-.18,0,.11.11,0,0,0,0,.17.13.13,0,0,0,.18,0A.11.11,0,0,0,106,131Z"/><path class="cls-3" d="M103.63,133.36a.11.11,0,1,0,0,.15A.11.11,0,0,0,103.63,133.36Z"/><path class="cls-3" d="M101,135.51a.08.08,0,1,0,0,.12A.09.09,0,0,0,101,135.51Z"/><path class="cls-3" d="M98.18,137.38a.07.07,0,1,0,0,.1A.07.07,0,0,0,98.18,137.38Z"/><path class="cls-3" d="M95.18,139a0,0,0,0,0-.07,0,.06.06,0,0,0,0,.08,0,0,0,0,0,.07,0A0,0,0,0,0,95.18,139Z"/><path class="cls-3" d="M92.05,140.25H92a.06.06,0,0,0,0,.06s.05,0,.06,0A0,0,0,0,0,92.05,140.25Z"/><path class="cls-3" d="M88.8,141.22h0a0,0,0,0,0,0,0h0A0,0,0,0,0,88.8,141.22Z"/><path class="cls-3" d="M85.48,141.85h0v0h0Z"/><path class="cls-3" d="M82.12,142.15s0,0,0,0h0Z"/><path class="cls-3" d="M81.7,70.74h0v0h0Z"/><path class="cls-3" d="M85.06,71s0,0,0,0,0,0,0,0h0S85.07,71,85.06,71Z"/><circle class="cls-3" cx="88.39" cy="71.5" r="0.02"/><path class="cls-3" d="M91.68,72.31a0,0,0,0,0,0,0,0,0,0,0,0,0,0,0,0,0,0,0,0,0A0,0,0,0,0,91.68,72.31Z"/><path class="cls-3" d="M94.88,73.4a0,0,0,0,0-.07,0,.06.06,0,0,0,0,.08,0,0,0,0,0,.07,0A.06.06,0,0,0,94.88,73.4Z"/><circle class="cls-3" cx="97.92" cy="74.84" r="0.07"/><circle class="cls-3" cx="100.85" cy="76.5" r="0.08"/><path class="cls-3" d="M103.7,78.35a.11.11,0,1,0,0,.15A.11.11,0,0,0,103.7,78.35Z"/><path class="cls-3" d="M106.3,80.5a.12.12,0,1,0,0,.17A.11.11,0,0,0,106.3,80.5Z"/><circle class="cls-3" cx="108.6" cy="82.97" r="0.15"/><path class="cls-3" d="M110.88,85.44a.17.17,0,1,0,0,.24A.16.16,0,0,0,110.88,85.44Z"/><path class="cls-3" d="M112.82,88.2a.19.19,0,1,0,0,.27A.2.2,0,0,0,112.82,88.2Z"/><path class="cls-3" d="M114.5,91.12a.21.21,0,1,0,0,.3A.22.22,0,0,0,114.5,91.12Z"/><path class="cls-3" d="M115.9,94.19a.22.22,0,0,0-.31.31.22.22,0,0,0,.31-.31Z"/><path class="cls-3" d="M117,97.36a.22.22,0,0,0-.32,0,.24.24,0,0,0,0,.33.22.22,0,0,0,.32,0A.24.24,0,0,0,117,97.36Z"/><path class="cls-3" d="M117.85,100.63a.23.23,0,0,0-.34,0,.24.24,0,0,0,.34.34A.23.23,0,0,0,117.85,100.63Z"/><path class="cls-3" d="M118.39,104a.25.25,0,0,0-.36,0,.25.25,0,0,0,.36.36A.25.25,0,0,0,118.39,104Z"/><path class="cls-3" d="M118.61,107.32a.25.25,0,1,0,0,.35A.24.24,0,0,0,118.61,107.32Z"/><path class="cls-3" d="M118.54,110.69a.25.25,0,0,0-.36,0,.25.25,0,0,0,.36.36A.25.25,0,0,0,118.54,110.69Z"/><path class="cls-3" d="M118.16,114a.26.26,0,0,0-.35,0,.25.25,0,0,0,0,.36.24.24,0,0,0,.35,0A.25.25,0,0,0,118.16,114Z"/><path class="cls-3" d="M117.48,117.36a.24.24,0,0,0-.34.34.24.24,0,0,0,.34-.34Z"/><circle class="cls-3" cx="116.34" cy="120.76" r="0.23"/><circle class="cls-3" cx="115.08" cy="123.89" r="0.21"/><path class="cls-3" d="M113.69,126.76a.2.2,0,0,0-.28.28.21.21,0,0,0,.28,0A.19.19,0,0,0,113.69,126.76Z"/><circle class="cls-3" cx="111.75" cy="129.75" r="0.18"/><circle class="cls-3" cx="109.71" cy="132.44" r="0.16"/><path class="cls-3" d="M107.53,134.83a.13.13,0,0,0-.19.19.12.12,0,0,0,.19,0A.14.14,0,0,0,107.53,134.83Z"/><path class="cls-3" d="M105,137.12a.11.11,0,1,0-.16.16.11.11,0,0,0,.16-.16Z"/><path class="cls-3" d="M102.33,139.18a.1.1,0,0,0-.14,0,.1.1,0,0,0,0,.13.1.1,0,0,0,.14,0A.1.1,0,0,0,102.33,139.18Z"/><circle class="cls-3" cx="99.4" cy="141.04" r="0.08"/><circle class="cls-3" cx="96.4" cy="142.57" r="0.06"/><path class="cls-3" d="M93.29,143.8a0,0,0,0,0-.05,0,0,0,0,0,0,0,.06,0,0,0,0,0,.05,0A0,0,0,0,0,93.29,143.8Z"/><path class="cls-3" d="M90.06,144.78h0a0,0,0,0,0,0,0,0,0,0,0,0,0,0A0,0,0,0,0,90.06,144.78Z"/><path class="cls-3" d="M86.74,145.46a0,0,0,0,0,0,0v0h0A0,0,0,0,0,86.74,145.46Z"/><circle class="cls-3" cx="83.38" cy="145.85" r="0.01"/><path class="cls-3" d="M82.12,67h0v0h0Z"/><circle class="cls-3" cx="85.48" cy="67.24" r="0.01"/><path class="cls-3" d="M88.83,67.74h0a0,0,0,0,0,0,0,0,0,0,0,0,0,0Z"/><path class="cls-3" d="M92.12,68.51s0,0-.06,0a0,0,0,0,0,.06.06S92.14,68.52,92.12,68.51Z"/><path class="cls-3" d="M95.34,69.55a.06.06,0,0,0-.08,0,0,0,0,0,0,0,.07.06.06,0,0,0,.08,0A0,0,0,0,0,95.34,69.55Z"/><circle class="cls-3" cx="98.41" cy="70.89" r="0.07"/><path class="cls-3" d="M101.47,72.38a.1.1,0,0,0-.13,0,.1.1,0,0,0,0,.14.1.1,0,0,0,.13,0A.1.1,0,0,0,101.47,72.38Z"/><path class="cls-3" d="M104.34,74.16a.12.12,0,0,0-.16,0,.14.14,0,0,0,0,.17.12.12,0,0,0,.16,0A.12.12,0,0,0,104.34,74.16Z"/><path class="cls-3" d="M107.06,76.17a.14.14,0,0,0-.19,0,.13.13,0,0,0,.19.19A.14.14,0,0,0,107.06,76.17Z"/><path class="cls-3" d="M109.6,78.39a.16.16,0,1,0,0,.22A.16.16,0,0,0,109.6,78.39Z"/><path class="cls-3" d="M112,80.81a.18.18,0,1,0,0,.25A.18.18,0,0,0,112,80.81Z"/><path class="cls-3" d="M114.1,83.41a.21.21,0,0,0-.28,0,.2.2,0,0,0,.28.28A.21.21,0,0,0,114.1,83.41Z"/><circle class="cls-3" cx="115.87" cy="86.33" r="0.22"/><circle class="cls-3" cx="117.54" cy="89.26" r="0.24"/><path class="cls-3" d="M119.16,92.13a.26.26,0,1,0,0,.37A.27.27,0,0,0,119.16,92.13Z"/><path class="cls-3" d="M120.35,95.29a.27.27,0,0,0-.39,0,.28.28,0,0,0,0,.38.27.27,0,0,0,.39,0A.28.28,0,0,0,120.35,95.29Z"/><path class="cls-3" d="M121.27,98.53a.28.28,0,0,0-.4,0,.29.29,0,0,0,0,.39.28.28,0,0,0,.4,0A.27.27,0,0,0,121.27,98.53Z"/><circle class="cls-3" cx="121.72" cy="102.04" r="0.29"/><circle class="cls-3" cx="122.1" cy="105.39" r="0.29"/><circle class="cls-3" cx="122.2" cy="108.76" r="0.3"/><circle class="cls-3" cx="122.03" cy="112.13" r="0.29"/><circle class="cls-3" cx="121.59" cy="115.48" r="0.29"/><path class="cls-3" d="M121.07,118.57a.28.28,0,1,0,0,.4A.28.28,0,0,0,121.07,118.57Z"/><path class="cls-3" d="M120.08,121.81a.27.27,0,0,0-.39,0,.28.28,0,0,0,0,.38.27.27,0,0,0,.39,0A.28.28,0,0,0,120.08,121.81Z"/><path class="cls-3" d="M118.83,125a.26.26,0,1,0,0,.37A.27.27,0,0,0,118.83,125Z"/><circle class="cls-3" cx="117.15" cy="128.16" r="0.24"/><path class="cls-3" d="M115.57,130.9a.22.22,0,1,0-.31.31.22.22,0,0,0,.31-.31Z"/><path class="cls-3" d="M113.58,133.66a.19.19,0,0,0-.28,0,.2.2,0,1,0,.28.28A.19.19,0,0,0,113.58,133.66Z"/><path class="cls-3" d="M111.38,136.25a.17.17,0,1,0,0,.24A.18.18,0,0,0,111.38,136.25Z"/><circle class="cls-3" cx="108.88" cy="138.75" r="0.15"/><circle class="cls-3" cx="106.3" cy="140.94" r="0.13"/><path class="cls-3" d="M103.64,142.83a.11.11,0,1,0,0,.15A.11.11,0,0,0,103.64,142.83Z"/><circle class="cls-3" cx="100.67" cy="144.64" r="0.08"/><path class="cls-3" d="M97.69,146.09a.07.07,0,0,0-.09,0,.06.06,0,0,0,0,.09.06.06,0,0,0,.09-.09Z"/><path class="cls-3" d="M94.54,147.34a0,0,0,0,0-.07,0,.06.06,0,0,0,0,.08,0,0,0,0,0,.07,0A.06.06,0,0,0,94.54,147.34Z"/><path class="cls-3" d="M91.3,148.34h0a0,0,0,0,0,0,0,0,0,0,0,0,0,0A0,0,0,0,0,91.3,148.34Z"/><path class="cls-3" d="M88,149.07h0s0,0,0,0h0S88,149.07,88,149.07Z"/><circle class="cls-3" cx="84.64" cy="149.53" r="0.01"/><path class="cls-3" d="M81.28,149.69h0v0h0Z"/><circle class="cls-3" cx="82.53" cy="63.25" r="0.01"/><path class="cls-3" d="M85.91,63.49a0,0,0,0,0,0,0v0h0A0,0,0,0,0,85.91,63.49Z"/><path class="cls-3" d="M89.25,64a0,0,0,0,0,0,0,0,0,0,0,0,0,0,0,0,0,0,0,0,0A0,0,0,0,0,89.22,64Z"/><path class="cls-3" d="M92.55,64.73s0,0-.06,0a.06.06,0,0,0,0,.06h.06S92.57,64.74,92.55,64.73Z"/><path class="cls-3" d="M95.79,65.71a.06.06,0,1,0,0,.08A.06.06,0,0,0,95.79,65.71Z"/><circle class="cls-3" cx="98.89" cy="66.98" r="0.07"/><circle class="cls-3" cx="101.93" cy="68.45" r="0.09"/><path class="cls-3" d="M104.93,70.05a.12.12,0,0,0-.16,0,.14.14,0,0,0,0,.17.12.12,0,0,0,.16,0A.12.12,0,0,0,104.93,70.05Z"/><path class="cls-3" d="M107.74,71.94a.15.15,0,0,0-.2,0,.14.14,0,0,0,0,.19.15.15,0,0,0,.2,0A.14.14,0,0,0,107.74,71.94Z"/><path class="cls-3" d="M110.4,74a.18.18,0,0,0-.24,0,.16.16,0,0,0,0,.24.17.17,0,0,0,.24-.24Z"/><path class="cls-3" d="M112.88,76.3a.19.19,0,0,0-.26,0,.2.2,0,0,0,0,.27.19.19,0,0,0,.26,0A.18.18,0,0,0,112.88,76.3Z"/><path class="cls-3" d="M115.19,78.76a.21.21,0,0,0-.29,0,.22.22,0,0,0,0,.3.21.21,0,0,0,.29,0A.2.2,0,0,0,115.19,78.76Z"/><path class="cls-3" d="M117.32,81.38a.23.23,0,0,0-.34,0,.24.24,0,1,0,.34,0Z"/><path class="cls-3" d="M119.24,84.15a.27.27,0,0,0-.37,0,.26.26,0,0,0,0,.37.26.26,0,1,0,.37-.37Z"/><path class="cls-3" d="M120.94,87.06a.28.28,0,0,0-.4,0,.27.27,0,0,0,0,.39.28.28,0,0,0,.4,0A.27.27,0,0,0,120.94,87.06Z"/><circle class="cls-3" cx="122.2" cy="90.3" r="0.3"/><circle class="cls-3" cx="123.44" cy="93.44" r="0.31"/><circle class="cls-3" cx="124.43" cy="96.66" r="0.32"/><path class="cls-3" d="M125.42,99.71a.34.34,0,1,0,0,.48A.34.34,0,0,0,125.42,99.71Z"/><path class="cls-3" d="M125.93,103a.35.35,0,1,0-.49.49.34.34,0,0,0,.49,0A.36.36,0,0,0,125.93,103Z"/><path class="cls-3" d="M126.18,106.41a.34.34,0,0,0-.49,0,.35.35,0,1,0,.49,0Z"/><path class="cls-3" d="M126.18,109.78a.35.35,0,1,0,0,.49A.36.36,0,0,0,126.18,109.78Z"/><path class="cls-3" d="M125.93,113.15a.34.34,0,0,0-.49,0,.34.34,0,0,0,0,.48.34.34,0,0,0,.49,0A.34.34,0,0,0,125.93,113.15Z"/><path class="cls-3" d="M125.42,116.49a.34.34,0,0,0-.48,0,.33.33,0,0,0,0,.47.34.34,0,0,0,.48,0A.33.33,0,0,0,125.42,116.49Z"/><path class="cls-3" d="M124.66,119.79a.33.33,0,0,0-.46.46.33.33,0,1,0,.46-.46Z"/><path class="cls-3" d="M123.66,123a.33.33,0,0,0-.45,0,.31.31,0,0,0,0,.44.31.31,0,0,0,.45,0A.31.31,0,0,0,123.66,123Z"/><circle class="cls-3" cx="122.2" cy="126.38" r="0.3"/><path class="cls-3" d="M120.94,129.22a.28.28,0,1,0,0,.4A.28.28,0,0,0,120.94,129.22Z"/><path class="cls-3" d="M119.24,132.16a.26.26,0,1,0,0,.37A.27.27,0,0,0,119.24,132.16Z"/><circle class="cls-3" cx="117.15" cy="135.13" r="0.24"/><path class="cls-3" d="M115.19,137.62a.21.21,0,0,0-.29,0,.22.22,0,0,0,0,.3.21.21,0,0,0,.29,0A.2.2,0,0,0,115.19,137.62Z"/><path class="cls-3" d="M112.88,140.11a.19.19,0,0,0-.26,0,.2.2,0,0,0,0,.27.19.19,0,0,0,.26,0A.18.18,0,0,0,112.88,140.11Z"/><path class="cls-3" d="M110.4,142.42a.18.18,0,0,0-.24,0,.16.16,0,0,0,0,.24.17.17,0,0,0,.24-.24Z"/><path class="cls-3" d="M107.74,144.55a.13.13,0,0,0-.2,0,.14.14,0,0,0,0,.19.15.15,0,0,0,.2,0A.14.14,0,0,0,107.74,144.55Z"/><path class="cls-3" d="M104.93,146.46a.12.12,0,0,0-.16,0,.14.14,0,0,0,0,.17.12.12,0,0,0,.16,0A.12.12,0,0,0,104.93,146.46Z"/><circle class="cls-3" cx="101.93" cy="148.23" r="0.09"/><path class="cls-3" d="M98.94,149.64a.09.09,0,0,0-.1,0,.08.08,0,0,0,0,.11.07.07,0,0,0,.1,0A.08.08,0,0,0,98.94,149.64Z"/><circle class="cls-3" cx="95.75" cy="150.93" r="0.05"/><path class="cls-3" d="M92.55,151.89h-.06a.06.06,0,0,0,0,.06s.05,0,.06,0S92.57,151.91,92.55,151.89Z"/><path class="cls-3" d="M89.25,152.66h0a0,0,0,0,0,0,0h0A0,0,0,0,0,89.25,152.66Z"/><path class="cls-3" d="M85.91,153.16h0v0h0A0,0,0,0,0,85.91,153.16Z"/><path class="cls-3" d="M82.54,153.42h0s0,0,0,0h0Z"/><circle class="cls-3" cx="82.95" cy="59.5" r="0.01"/><path class="cls-3" d="M86.33,59.75h0v0h0A0,0,0,0,0,86.33,59.75Z"/><path class="cls-3" d="M89.67,60.24h0s0,0,0,0h0S89.68,60.25,89.67,60.24Z"/><path class="cls-3" d="M93,61a.06.06,0,0,0-.06,0,.06.06,0,0,0,0,.06s0,0,.06,0A0,0,0,0,0,93,61Z"/><circle class="cls-3" cx="96.19" cy="61.93" r="0.06"/><circle class="cls-3" cx="99.36" cy="63.1" r="0.08"/><path class="cls-3" d="M102.5,64.42a.09.09,0,1,0,0,.13A.09.09,0,0,0,102.5,64.42Z"/><path class="cls-3" d="M105.5,66a.13.13,0,1,0,0,.18A.13.13,0,0,0,105.5,66Z"/><path class="cls-3" d="M108.37,67.77a.15.15,0,0,0-.21,0,.15.15,0,0,0,.21.21A.15.15,0,0,0,108.37,67.77Z"/><circle class="cls-3" cx="110.99" cy="69.86" r="0.17"/><path class="cls-3" d="M113.71,71.89a.2.2,0,1,0-.28.28.2.2,0,0,0,.28-.28Z"/><path class="cls-3" d="M116.16,74.22a.23.23,0,0,0-.31,0,.22.22,0,0,0,.31.31A.23.23,0,0,0,116.16,74.22Z"/><path class="cls-3" d="M118.44,76.71a.25.25,0,0,0-.36,0,.26.26,0,0,0,0,.35.25.25,0,0,0,.36,0A.24.24,0,0,0,118.44,76.71Z"/><path class="cls-3" d="M120.53,79.35a.27.27,0,1,0,0,.38A.26.26,0,0,0,120.53,79.35Z"/><circle class="cls-3" cx="122.23" cy="82.33" r="0.3"/><path class="cls-3" d="M124.16,85a.33.33,0,0,0-.46.46.33.33,0,1,0,.46-.46Z"/><path class="cls-3" d="M125.66,88a.34.34,0,0,0-.48,0,.34.34,0,0,0,0,.49.33.33,0,0,0,.48,0A.34.34,0,0,0,125.66,88Z"/><path class="cls-3" d="M127,91.14a.37.37,0,1,0,0,.52A.37.37,0,0,0,127,91.14Z"/><circle class="cls-3" cx="127.76" cy="94.6" r="0.38"/><circle class="cls-3" cx="128.59" cy="97.87" r="0.39"/><circle class="cls-3" cx="129.2" cy="101.19" r="0.4"/><path class="cls-3" d="M129.87,104.26a.41.41,0,0,0-.58,0,.4.4,0,0,0,0,.57.41.41,0,0,0,.58,0A.4.4,0,0,0,129.87,104.26Z"/><path class="cls-3" d="M130,107.63a.4.4,0,0,0-.57,0,.4.4,0,1,0,.57.57A.4.4,0,0,0,130,107.63Z"/><path class="cls-3" d="M129.93,111a.41.41,0,1,0,0,.58A.43.43,0,0,0,129.93,111Z"/><path class="cls-3" d="M129.6,114.37a.4.4,0,0,0-.56.56.4.4,0,0,0,.56-.56Z"/><circle class="cls-3" cx="128.77" cy="117.98" r="0.39"/><circle class="cls-3" cx="127.99" cy="121.26" r="0.38"/><circle class="cls-3" cx="126.98" cy="124.48" r="0.36"/><path class="cls-3" d="M126,127.39a.34.34,0,1,0-.48.48.34.34,0,0,0,.48-.48Z"/><circle class="cls-3" cx="124.32" cy="130.68" r="0.32"/><circle class="cls-3" cx="122.68" cy="133.63" r="0.3"/><path class="cls-3" d="M121,136.25a.28.28,0,1,0,0,.4A.28.28,0,0,0,121,136.25Z"/><path class="cls-3" d="M119,139a.26.26,0,1,0,0,.37A.27.27,0,0,0,119,139Z"/><circle class="cls-3" cx="116.58" cy="141.69" r="0.23"/><path class="cls-3" d="M114.34,143.94a.2.2,0,1,0-.28.28.2.2,0,0,0,.28-.28Z"/><path class="cls-3" d="M111.78,146.17a.18.18,0,1,0,0,.25A.18.18,0,0,0,111.78,146.17Z"/><path class="cls-3" d="M109.06,148.22a.15.15,0,0,0-.2,0,.15.15,0,0,0,0,.21.13.13,0,0,0,.2,0A.15.15,0,0,0,109.06,148.22Z"/><path class="cls-3" d="M106.22,150.08a.11.11,0,0,0-.17,0,.13.13,0,0,0,0,.18.11.11,0,0,0,.17,0A.13.13,0,0,0,106.22,150.08Z"/><path class="cls-3" d="M103.26,151.74a.11.11,0,1,0,0,.15A.11.11,0,0,0,103.26,151.74Z"/><circle class="cls-3" cx="100.14" cy="153.25" r="0.08"/><circle class="cls-3" cx="96.99" cy="154.48" r="0.06"/><path class="cls-3" d="M93.8,155.45h-.06a0,0,0,0,0,.06.06A.06.06,0,0,0,93.8,155.45Z"/><path class="cls-3" d="M90.51,156.24a0,0,0,0,0-.05,0,0,0,0,0,0,0,0h.05A0,0,0,0,0,90.51,156.24Z"/><path class="cls-3" d="M87.17,156.8a0,0,0,0,0,0,0s0,0,0,0h0S87.18,156.8,87.17,156.8Z"/><circle class="cls-3" cx="83.8" cy="157.13" r="0.01"/><circle class="cls-3" cx="83.38" cy="55.76" r="0.01"/><circle class="cls-3" cx="86.74" cy="56.03" r="0.02"/><path class="cls-3" d="M90.1,56.49a0,0,0,0,0,0,0,0,0,0,0,0,0,0h0A0,0,0,0,0,90.1,56.49Z"/><path class="cls-3" d="M93.41,57.18h-.06a.06.06,0,0,0,0,.06,0,0,0,0,0,.06,0S93.43,57.2,93.41,57.18Z"/><path class="cls-3" d="M96.68,58.08a.06.06,0,0,0-.09,0,0,0,0,0,0,0,.08.06.06,0,0,0,.09,0A.06.06,0,0,0,96.68,58.08Z"/><circle class="cls-3" cx="99.82" cy="59.24" r="0.08"/><path class="cls-3" d="M103,60.48a.11.11,0,1,0,0,.15A.11.11,0,0,0,103,60.48Z"/><path class="cls-3" d="M106,62a.13.13,0,0,0-.18,0,.11.11,0,0,0,0,.17.13.13,0,0,0,.18,0A.11.11,0,0,0,106,62Z"/><circle class="cls-3" cx="108.85" cy="63.77" r="0.15"/><path class="cls-3" d="M111.78,65.53a.18.18,0,1,0,0,.25A.17.17,0,0,0,111.78,65.53Z"/><circle class="cls-3" cx="114.32" cy="67.71" r="0.21"/><circle class="cls-3" cx="116.86" cy="69.94" r="0.23"/><path class="cls-3" d="M119.43,72.14a.26.26,0,1,0,0,.37A.27.27,0,0,0,119.43,72.14Z"/><path class="cls-3" d="M121.68,74.66a.29.29,0,0,0-.42,0,.3.3,0,0,0,0,.41.31.31,0,0,0,.42,0A.3.3,0,0,0,121.68,74.66Z"/><path class="cls-3" d="M123.75,77.31a.31.31,0,0,0-.44,0,.33.33,0,0,0,0,.45.31.31,0,0,0,.44,0A.31.31,0,0,0,123.75,77.31Z"/><path class="cls-3" d="M125.66,80.09a.33.33,0,0,0-.48,0,.34.34,0,0,0,0,.49.34.34,0,0,0,.48,0A.34.34,0,0,0,125.66,80.09Z"/><circle class="cls-3" cx="127.12" cy="83.25" r="0.36"/><circle class="cls-3" cx="128.63" cy="86.26" r="0.39"/><path class="cls-3" d="M130.24,89.08a.41.41,0,1,0,0,.58A.41.41,0,0,0,130.24,89.08Z"/><path class="cls-3" d="M131.37,92.25a.43.43,0,1,0,0,.61A.45.45,0,0,0,131.37,92.25Z"/><path class="cls-3" d="M132.28,95.49a.44.44,0,0,0-.62.62.42.42,0,0,0,.62,0A.44.44,0,0,0,132.28,95.49Z"/><path class="cls-3" d="M133,98.79a.45.45,0,0,0-.64,0,.45.45,0,0,0,0,.63.45.45,0,0,0,.64,0A.45.45,0,0,0,133,98.79Z"/><circle class="cls-3" cx="133.16" cy="102.45" r="0.46"/><circle class="cls-3" cx="133.43" cy="105.81" r="0.47"/><circle class="cls-3" cx="133.48" cy="109.18" r="0.47"/><path class="cls-3" d="M133.64,112.23a.46.46,0,1,0,0,.65A.46.46,0,0,0,133.64,112.23Z"/><circle class="cls-3" cx="132.94" cy="115.91" r="0.46"/><path class="cls-3" d="M132.67,118.91a.45.45,0,1,0,0,.64A.47.47,0,0,0,132.67,118.91Z"/><path class="cls-3" d="M131.85,122.2a.43.43,0,0,0-.61,0,.42.42,0,0,0,0,.62.43.43,0,0,0,.61,0A.42.42,0,0,0,131.85,122.2Z"/><path class="cls-3" d="M130.83,125.43a.42.42,0,1,0,0,.59A.42.42,0,0,0,130.83,125.43Z"/><circle class="cls-3" cx="129.32" cy="128.87" r="0.4"/><circle class="cls-3" cx="127.9" cy="131.94" r="0.38"/><path class="cls-3" d="M126.54,134.65a.35.35,0,1,0,0,.5A.35.35,0,0,0,126.54,134.65Z"/><path class="cls-3" d="M124.73,137.52a.33.33,0,0,0-.47,0,.34.34,0,0,0,0,.48.33.33,0,0,0,.47,0A.34.34,0,0,0,124.73,137.52Z"/><path class="cls-3" d="M122.74,140.28a.3.3,0,1,0,0,.43A.3.3,0,0,0,122.74,140.28Z"/><path class="cls-3" d="M120.57,142.91a.27.27,0,1,0,0,.38A.28.28,0,0,0,120.57,142.91Z"/><path class="cls-3" d="M118.25,145.39a.25.25,0,0,0-.36,0,.24.24,0,0,0,0,.35.25.25,0,0,0,.36,0A.26.26,0,0,0,118.25,145.39Z"/><circle class="cls-3" cx="115.61" cy="147.87" r="0.22"/><path class="cls-3" d="M113.14,149.88a.19.19,0,1,0,0,.27A.2.2,0,0,0,113.14,149.88Z"/><path class="cls-3" d="M110.39,151.87a.18.18,0,0,0-.24,0,.16.16,0,0,0,0,.24.17.17,0,1,0,.24-.24Z"/><circle class="cls-3" cx="107.41" cy="153.79" r="0.14"/><path class="cls-3" d="M104.52,155.31a.12.12,0,0,0-.16,0,.14.14,0,0,0,0,.17.12.12,0,0,0,.16,0A.12.12,0,0,0,104.52,155.31Z"/><path class="cls-3" d="M101.45,156.74a.1.1,0,1,0,0,.14A.12.12,0,0,0,101.45,156.74Z"/><circle class="cls-3" cx="98.23" cy="158.03" r="0.07"/><path class="cls-3" d="M95.05,159a0,0,0,0,0-.07.07,0,0,0,0,0,.07,0A0,0,0,0,0,95.05,159Z"/><path class="cls-3" d="M91.76,159.82h-.05a0,0,0,0,0,0,0s0,0,.05,0A0,0,0,0,0,91.76,159.82Z"/><path class="cls-3" d="M88.43,160.42h0a0,0,0,0,0,0,0,0,0,0,0,0,0,0A0,0,0,0,0,88.43,160.42Z"/><path class="cls-3" d="M85.07,160.8h0v0h0Z"/><circle class="cls-3" cx="81.69" cy="160.97" r="0.01"/><circle class="cls-3" cx="83.8" cy="52.02" r="0.01"/><path class="cls-3" d="M87.18,52.28h0a0,0,0,0,0,0,0h0Z"/><path class="cls-3" d="M90.52,52.75h0a0,0,0,0,0,0,0,0,0,0,0,0,0,0A0,0,0,0,0,90.48,52.79Z"/><path class="cls-3" d="M93.84,53.41a0,0,0,0,0-.07.07,0,0,0,0,0,.07,0A0,0,0,0,0,93.84,53.41Z"/><circle class="cls-3" cx="97.07" cy="54.32" r="0.06"/><circle class="cls-3" cx="100.27" cy="55.39" r="0.08"/><path class="cls-3" d="M103.47,56.57a.1.1,0,0,0-.14,0,.11.11,0,0,0,0,.15.1.1,0,0,0,.14,0A.11.11,0,0,0,103.47,56.57Z"/><path class="cls-3" d="M106.55,58a.14.14,0,0,0-.19,0,.12.12,0,0,0,0,.19.13.13,0,0,0,.19-.19Z"/><circle class="cls-3" cx="109.41" cy="59.71" r="0.16"/><path class="cls-3" d="M112.4,61.37a.19.19,0,0,0-.26,0,.18.18,0,0,0,.26.26A.19.19,0,0,0,112.4,61.37Z"/><path class="cls-3" d="M115.16,63.32a.21.21,0,0,0-.29,0,.19.19,0,0,0,0,.29.21.21,0,1,0,.29-.29Z"/><path class="cls-3" d="M117.81,65.42a.25.25,0,0,0-.34,0,.23.23,0,0,0,0,.34.24.24,0,0,0,.34-.34Z"/><path class="cls-3" d="M120.32,67.67a.28.28,0,0,0-.38,0,.27.27,0,0,0,0,.39.28.28,0,0,0,.38,0A.29.29,0,0,0,120.32,67.67Z"/><path class="cls-3" d="M122.69,70.07a.32.32,0,0,0-.43,0,.31.31,0,0,0,0,.43.3.3,0,0,0,.43-.43Z"/><path class="cls-3" d="M124.91,72.61a.33.33,0,1,0,0,.47A.33.33,0,0,0,124.91,72.61Z"/><path class="cls-3" d="M127,75.27a.37.37,0,1,0,0,.52A.37.37,0,0,0,127,75.27Z"/><circle class="cls-3" cx="128.6" cy="78.33" r="0.39"/><path class="cls-3" d="M130.61,81a.42.42,0,1,0-.59.59.42.42,0,0,0,.59-.59Z"/><path class="cls-3" d="M132.15,83.94a.44.44,0,1,0,0,.62A.44.44,0,0,0,132.15,83.94Z"/><path class="cls-3" d="M133.52,87a.46.46,0,1,0,0,.65A.46.46,0,0,0,133.52,87Z"/><circle class="cls-3" cx="134.35" cy="90.51" r="0.48"/><path class="cls-3" d="M135.68,93.39a.5.5,0,0,0-.71,0,.5.5,0,1,0,.71,0Z"/><path class="cls-3" d="M136.46,96.66a.53.53,0,0,0-.72,0,.52.52,0,0,0,0,.73.51.51,0,0,0,.72,0A.52.52,0,0,0,136.46,96.66Z"/><path class="cls-3" d="M137.05,100a.52.52,0,1,0,0,.74A.53.53,0,0,0,137.05,100Z"/><circle class="cls-3" cx="137.06" cy="103.7" r="0.52"/><circle class="cls-3" cx="137.23" cy="107.07" r="0.53"/><path class="cls-3" d="M137.58,110.07a.53.53,0,1,0,0,.75A.53.53,0,0,0,137.58,110.07Z"/><path class="cls-3" d="M137.35,113.45a.51.51,0,0,0-.74,0,.52.52,0,0,0,0,.73.51.51,0,0,0,.74,0A.52.52,0,0,0,137.35,113.45Z"/><path class="cls-3" d="M136.92,116.79a.52.52,0,1,0,0,.74A.51.51,0,0,0,136.92,116.79Z"/><path class="cls-3" d="M136.29,120.12a.52.52,0,0,0-.73,0,.51.51,0,0,0,0,.72.52.52,0,0,0,.73,0A.51.51,0,0,0,136.29,120.12Z"/><path class="cls-3" d="M135.45,123.4a.49.49,0,1,0,0,.7A.5.5,0,0,0,135.45,123.4Z"/><path class="cls-3" d="M134.42,126.63a.48.48,0,0,0-.68,0,.48.48,0,1,0,.68.68A.48.48,0,0,0,134.42,126.63Z"/><circle class="cls-3" cx="132.87" cy="130.12" r="0.46"/><path class="cls-3" d="M131.79,132.88a.44.44,0,1,0,0,.62A.44.44,0,0,0,131.79,132.88Z"/><path class="cls-3" d="M130.19,135.89a.41.41,0,0,0-.58,0,.4.4,0,0,0,0,.57.41.41,0,0,0,.58,0A.4.4,0,0,0,130.19,135.89Z"/><circle class="cls-3" cx="128.15" cy="139.06" r="0.39"/><path class="cls-3" d="M126.48,141.58a.35.35,0,1,0,0,.5A.35.35,0,0,0,126.48,141.58Z"/><path class="cls-3" d="M124.37,144.26a.32.32,0,0,0-.46,0,.33.33,0,0,0,0,.45.32.32,0,0,0,.46,0A.31.31,0,0,0,124.37,144.26Z"/><path class="cls-3" d="M122.11,146.8a.3.3,0,0,0-.41,0,.29.29,0,0,0,0,.42.3.3,0,0,0,.41,0A.31.31,0,0,0,122.11,146.8Z"/><path class="cls-3" d="M119.71,149.2a.28.28,0,0,0-.38,0,.27.27,0,0,0,0,.39.28.28,0,0,0,.38,0A.29.29,0,0,0,119.71,149.2Z"/><path class="cls-3" d="M117.16,151.47a.23.23,0,0,0-.34,0,.24.24,0,0,0,0,.33.23.23,0,0,0,.34,0A.22.22,0,0,0,117.16,151.47Z"/><circle class="cls-3" cx="114.34" cy="153.72" r="0.21"/><path class="cls-3" d="M111.69,155.52a.18.18,0,1,0,0,.25A.18.18,0,0,0,111.69,155.52Z"/><circle class="cls-3" cx="108.68" cy="157.39" r="0.15"/><path class="cls-3" d="M105.79,158.88a.13.13,0,1,0,0,.18A.15.15,0,0,0,105.79,158.88Z"/><path class="cls-3" d="M102.7,160.29a.11.11,0,1,0,0,.15A.11.11,0,0,0,102.7,160.29Z"/><path class="cls-3" d="M99.53,161.52a.08.08,0,1,0,0,.11A.07.07,0,0,0,99.53,161.52Z"/><circle class="cls-3" cx="96.26" cy="162.59" r="0.06"/><path class="cls-3" d="M93,163.39a0,0,0,0,0-.05,0,0,0,0,0,0,0,.06,0,0,0,0,0,.05,0A0,0,0,0,0,93,163.39Z"/><path class="cls-3" d="M89.68,164h0v0h0A0,0,0,0,0,89.68,164Z"/><path class="cls-3" d="M86.34,164.46a0,0,0,0,0,0,0,0,0,0,0,0,0,0h0Z"/><path class="cls-3" d="M83,164.69h0s0,0,0,0h0S83,164.7,83,164.69Z"/><path class="cls-3" d="M84.23,48.27s0,0,0,0h0Z"/><path class="cls-3" d="M87.6,48.54h0a0,0,0,0,0,0,0h0S87.6,48.55,87.6,48.54Z"/><path class="cls-3" d="M91,49s0,0,0,0a0,0,0,0,0,0,0,0,0,0,0,0,0,0A0,0,0,0,0,91,49Z"/><path class="cls-3" d="M94.27,49.65a0,0,0,1,0,0,.07A0,0,0,0,0,94.27,49.65Z"/><path class="cls-3" d="M97.55,50.49a.06.06,0,0,0-.09,0,0,0,0,0,0,0,.08.06.06,0,0,0,.09,0A.06.06,0,0,0,97.55,50.49Z"/><path class="cls-3" d="M100.78,51.5a.07.07,0,0,0-.12,0,.07.07,0,0,0,0,.11.07.07,0,0,0,.12,0A.08.08,0,0,0,100.78,51.5Z"/><path class="cls-3" d="M104,52.68a.11.11,0,0,0-.16.16.11.11,0,1,0,.16-.16Z"/><path class="cls-3" d="M107,54a.13.13,0,1,0,0,.19A.12.12,0,0,0,107,54Z"/><circle class="cls-3" cx="109.95" cy="55.68" r="0.16"/><path class="cls-3" d="M113,57.27a.18.18,0,0,0-.27,0,.19.19,0,0,0,0,.26.18.18,0,0,0,.27,0A.19.19,0,0,0,113,57.27Z"/><path class="cls-3" d="M115.81,59.12a.21.21,0,0,0-.31,0,.22.22,0,0,0,.31.31A.21.21,0,0,0,115.81,59.12Z"/><circle class="cls-3" cx="118.36" cy="61.3" r="0.25"/><path class="cls-3" d="M121.13,63.28a.27.27,0,0,0-.39,0,.28.28,0,0,0,0,.4.27.27,0,0,0,.39,0A.28.28,0,0,0,121.13,63.28Z"/><circle class="cls-3" cx="123.39" cy="65.8" r="0.31"/><path class="cls-3" d="M126,68a.34.34,0,0,0-.49,0,.34.34,0,0,0,0,.48.34.34,0,0,0,.49,0A.34.34,0,0,0,126,68Z"/><path class="cls-3" d="M128.15,70.56a.39.39,0,0,0-.53,0,.37.37,0,0,0,.53.53A.39.39,0,0,0,128.15,70.56Z"/><path class="cls-3" d="M130.2,73.24a.41.41,0,0,0-.58,0,.4.4,0,0,0,0,.57.41.41,0,0,0,.58,0A.4.4,0,0,0,130.2,73.24Z"/><circle class="cls-3" cx="131.79" cy="76.33" r="0.44"/><path class="cls-3" d="M133.83,78.91a.45.45,0,0,0-.66,0,.47.47,0,0,0,.66.66A.45.45,0,0,0,133.83,78.91Z"/><path class="cls-3" d="M135.4,81.89a.5.5,0,0,0-.7,0,.49.49,0,0,0,0,.69.5.5,0,0,0,.7,0A.49.49,0,0,0,135.4,81.89Z"/><path class="cls-3" d="M136.79,85a.51.51,0,1,0,0,.72A.51.51,0,0,0,136.79,85Z"/><circle class="cls-3" cx="137.63" cy="88.47" r="0.53"/><circle class="cls-3" cx="138.66" cy="91.68" r="0.55"/><path class="cls-3" d="M139.9,94.55a.56.56,0,0,0-.81,0,.57.57,0,0,0,.81.81A.56.56,0,0,0,139.9,94.55Z"/><path class="cls-3" d="M140.57,97.85a.59.59,0,0,0-.83,0,.59.59,0,0,0,0,.82.59.59,0,0,0,.83,0A.57.57,0,0,0,140.57,97.85Z"/><path class="cls-3" d="M141.05,101.18a.59.59,0,1,0-.84.84.58.58,0,0,0,.84,0A.6.6,0,0,0,141.05,101.18Z"/><circle class="cls-3" cx="140.91" cy="104.97" r="0.59"/><circle class="cls-3" cx="141.01" cy="108.34" r="0.59"/><circle class="cls-3" cx="140.91" cy="111.71" r="0.59"/><path class="cls-3" d="M141.05,114.65a.6.6,0,0,0-.84,0,.61.61,0,0,0,0,.85.6.6,0,0,0,.84,0A.61.61,0,0,0,141.05,114.65Z"/><path class="cls-3" d="M140.57,118a.59.59,0,1,0-.83.83.59.59,0,0,0,.83-.83Z"/><path class="cls-3" d="M139.9,121.32a.57.57,0,0,0-.81.81.57.57,0,0,0,.81-.81Z"/><circle class="cls-3" cx="138.66" cy="124.99" r="0.55"/><circle class="cls-3" cx="137.63" cy="128.21" r="0.53"/><path class="cls-3" d="M136.79,131a.51.51,0,1,0,0,.72A.51.51,0,0,0,136.79,131Z"/><path class="cls-3" d="M135.4,134.1a.48.48,0,0,0-.7,0,.49.49,0,0,0,0,.69.5.5,0,0,0,.7,0A.49.49,0,0,0,135.4,134.1Z"/><path class="cls-3" d="M133.83,137.11a.47.47,0,1,0-.66.66.47.47,0,0,0,.66-.66Z"/><circle class="cls-3" cx="131.79" cy="140.35" r="0.44"/><path class="cls-3" d="M130.2,142.87a.41.41,0,0,0-.58,0,.4.4,0,0,0,0,.57.41.41,0,0,0,.58,0A.4.4,0,0,0,130.2,142.87Z"/><path class="cls-3" d="M128.15,145.58a.39.39,0,0,0-.53,0,.37.37,0,1,0,.53.53A.39.39,0,0,0,128.15,145.58Z"/><path class="cls-3" d="M126,148.18a.35.35,0,0,0-.49.49.34.34,0,0,0,.49,0A.36.36,0,0,0,126,148.18Z"/><circle class="cls-3" cx="123.39" cy="150.88" r="0.31"/><path class="cls-3" d="M121.13,153a.27.27,0,0,0-.39,0,.28.28,0,0,0,0,.4.27.27,0,0,0,.39,0A.28.28,0,0,0,121.13,153Z"/><path class="cls-3" d="M118.53,155.2a.25.25,0,1,0,0,.35A.24.24,0,0,0,118.53,155.2Z"/><path class="cls-3" d="M115.81,157.25a.21.21,0,0,0-.31,0,.22.22,0,0,0,.31.31A.21.21,0,0,0,115.81,157.25Z"/><path class="cls-3" d="M113,159.15a.18.18,0,0,0-.27,0,.19.19,0,0,0,0,.26.18.18,0,0,0,.27,0A.19.19,0,0,0,113,159.15Z"/><path class="cls-3" d="M110.06,160.88a.16.16,0,0,0-.22.22.14.14,0,0,0,.22,0A.16.16,0,0,0,110.06,160.88Z"/><path class="cls-3" d="M107.05,162.45a.13.13,0,0,0-.2,0,.14.14,0,0,0,0,.19.15.15,0,0,0,.2,0A.14.14,0,0,0,107.05,162.45Z"/><path class="cls-3" d="M104,163.84a.12.12,0,0,0-.16,0,.11.11,0,1,0,.16.16A.12.12,0,0,0,104,163.84Z"/><circle class="cls-3" cx="100.72" cy="165.12" r="0.08"/><path class="cls-3" d="M97.55,166.1a.07.07,0,0,0-.09,0,.06.06,0,0,0,.09.09A.07.07,0,0,0,97.55,166.1Z"/><path class="cls-3" d="M94.27,167a0,0,0,0,0-.07,0,0,0,0,1,0,.07,0Z"/><path class="cls-3" d="M91,167.63h0a0,0,0,0,0,0,0,0,0,0,0,0,0,0A0,0,0,0,0,91,167.63Z"/><path class="cls-3" d="M87.6,168.11a0,0,0,0,0,0,0,0,0,0,0,0,0,0,0,0,0,0,0,0,0A0,0,0,0,0,87.57,168.14Z"/><path class="cls-3" d="M84.23,168.4s0,0,0,0h0Z"/><path class="cls-3" d="M84.65,44.52h0v0h0Z"/><circle class="cls-3" cx="88" cy="44.82" r="0.02" transform="translate(-5.92 75.36) rotate(-45)"/><path class="cls-3" d="M91.37,45.26h-.05a0,0,0,0,0,0,.05h.05A0,0,0,0,0,91.37,45.26Z"/><path class="cls-3" d="M94.7,45.89a.06.06,0,1,0,0,.08A.06.06,0,0,0,94.7,45.89Z"/><circle class="cls-3" cx="97.93" cy="46.74" r="0.07"/><path class="cls-3" d="M101.23,47.67a.1.1,0,0,0-.14,0,.1.1,0,0,0,0,.13.12.12,0,0,0,.14,0A.1.1,0,0,0,101.23,47.67Z"/><path class="cls-3" d="M104.41,48.81a.11.11,0,0,0-.16.16.12.12,0,0,0,.16,0A.1.1,0,0,0,104.41,48.81Z"/><path class="cls-3" d="M107.53,50.11a.14.14,0,0,0-.19,0,.15.15,0,0,0,0,.2.14.14,0,0,0,.19,0A.15.15,0,0,0,107.53,50.11Z"/><circle class="cls-3" cx="110.47" cy="51.69" r="0.17"/><path class="cls-3" d="M113.55,53.2a.19.19,0,0,0-.28,0,.2.2,0,1,0,.28.28A.19.19,0,0,0,113.55,53.2Z"/><circle class="cls-3" cx="116.27" cy="55.13" r="0.23"/><path class="cls-3" d="M119.21,56.89a.25.25,0,0,0-.36,0,.25.25,0,0,0,0,.37.25.25,0,0,0,.36,0A.25.25,0,0,0,119.21,56.89Z"/><path class="cls-3" d="M121.89,59a.29.29,0,0,0-.41.41.29.29,0,0,0,.41-.41Z"/><path class="cls-3" d="M124.45,61.16a.32.32,0,0,0-.46,0,.33.33,0,0,0,0,.45.32.32,0,0,0,.46,0A.31.31,0,0,0,124.45,61.16Z"/><path class="cls-3" d="M126.89,63.49a.35.35,0,1,0,0,.5A.35.35,0,0,0,126.89,63.49Z"/><path class="cls-3" d="M129.21,65.94a.4.4,0,0,0-.56.56.4.4,0,0,0,.56-.56Z"/><path class="cls-3" d="M131.39,68.51a.45.45,0,0,0-.61,0,.43.43,0,1,0,.61.61A.45.45,0,0,0,131.39,68.51Z"/><circle class="cls-3" cx="133.1" cy="71.52" r="0.46"/><path class="cls-3" d="M135.32,74a.49.49,0,1,0,0,.7A.5.5,0,0,0,135.32,74Z"/><path class="cls-3" d="M137.06,76.87a.51.51,0,0,0-.74,0,.52.52,0,0,0,0,.73.51.51,0,0,0,.74,0A.52.52,0,0,0,137.06,76.87Z"/><circle class="cls-3" cx="138.25" cy="80.23" r="0.54"/><path class="cls-3" d="M140.06,82.89a.56.56,0,0,0-.81,0,.57.57,0,0,0,.81.81A.56.56,0,0,0,140.06,82.89Z"/><path class="cls-3" d="M141.32,86a.6.6,0,0,0-.84,0,.59.59,0,1,0,.84.84A.6.6,0,0,0,141.32,86Z"/><circle class="cls-3" cx="141.97" cy="89.63" r="0.62"/><circle class="cls-3" cx="142.87" cy="92.88" r="0.64"/><path class="cls-3" d="M144.06,95.72a.65.65,0,1,0,0,.92A.66.66,0,0,0,144.06,95.72Z"/><path class="cls-3" d="M144.62,99a.67.67,0,0,0-.93,0,.66.66,0,1,0,.93,0Z"/><circle class="cls-3" cx="144.53" cy="102.86" r="0.67"/><path class="cls-3" d="M145.21,105.75a.68.68,0,1,0,0,1A.67.67,0,0,0,145.21,105.75Z"/><circle class="cls-3" cx="144.75" cy="109.6" r="0.68"/><path class="cls-3" d="M145.07,112.5a.66.66,0,0,0-.94,0,.68.68,0,0,0,0,1,.66.66,0,0,0,.94,0A.68.68,0,0,0,145.07,112.5Z"/><path class="cls-3" d="M144.74,115.86a.67.67,0,1,0,0,1A.68.68,0,0,0,144.74,115.86Z"/><path class="cls-3" d="M144.22,119.21a.65.65,0,0,0-.93,0,.64.64,0,0,0,0,.92.65.65,0,0,0,.93,0A.64.64,0,0,0,144.22,119.21Z"/><path class="cls-3" d="M143.52,122.52a.65.65,0,0,0-.9,0,.64.64,0,1,0,.9,0Z"/><path class="cls-3" d="M142.65,125.8a.62.62,0,1,0,0,.87A.62.62,0,0,0,142.65,125.8Z"/><path class="cls-3" d="M141.6,129a.59.59,0,1,0,0,.84A.6.6,0,0,0,141.6,129Z"/><path class="cls-3" d="M140.39,132.2a.58.58,0,0,0-.81,0,.57.57,0,0,0,.81.81A.58.58,0,0,0,140.39,132.2Z"/><circle class="cls-3" cx="138.62" cy="135.69" r="0.55"/><circle class="cls-3" cx="137.09" cy="138.7" r="0.53"/><path class="cls-3" d="M135.77,141.28a.5.5,0,0,0-.71,0,.48.48,0,0,0,0,.7.5.5,0,0,0,.71,0A.5.5,0,0,0,135.77,141.28Z"/><circle class="cls-3" cx="133.58" cy="144.46" r="0.47"/><circle class="cls-3" cx="131.6" cy="147.2" r="0.44"/><circle class="cls-3" cx="129.48" cy="149.82" r="0.41"/><path class="cls-3" d="M127.48,152.07a.37.37,0,1,0,0,.52A.37.37,0,0,0,127.48,152.07Z"/><path class="cls-3" d="M125.07,154.48a.33.33,0,1,0,0,.47A.33.33,0,0,0,125.07,154.48Z"/><circle class="cls-3" cx="122.33" cy="156.97" r="0.3"/><path class="cls-3" d="M119.89,158.9a.28.28,0,0,0-.38,0,.29.29,0,0,0,0,.39.28.28,0,0,0,.38,0A.27.27,0,0,0,119.89,158.9Z"/><path class="cls-3" d="M117.13,160.91a.22.22,0,0,0-.32,0,.24.24,0,0,0,0,.33.22.22,0,0,0,.32,0A.24.24,0,0,0,117.13,160.91Z"/><path class="cls-3" d="M114.28,162.77a.2.2,0,0,0-.28.28.2.2,0,1,0,.28-.28Z"/><path class="cls-3" d="M111.33,164.47a.16.16,0,0,0-.24,0,.17.17,0,1,0,.24,0Z"/><circle class="cls-3" cx="108.2" cy="166.11" r="0.15"/><path class="cls-3" d="M105.19,167.39a.12.12,0,0,0-.16,0,.14.14,0,0,0,0,.17.12.12,0,0,0,.16,0A.12.12,0,0,0,105.19,167.39Z"/><path class="cls-3" d="M102,168.61a.09.09,0,0,0-.13,0,.1.1,0,0,0,0,.13.09.09,0,0,0,.13-.13Z"/><circle class="cls-3" cx="98.74" cy="169.7" r="0.07"/><path class="cls-3" d="M95.52,170.53a.06.06,0,0,0-.08,0,0,0,0,0,0,0,.07.06.06,0,0,0,.08,0A0,0,0,0,0,95.52,170.53Z"/><path class="cls-3" d="M92.21,171.22s0,0-.06,0a0,0,0,0,0,0,.06h.06A.06.06,0,0,0,92.21,171.22Z"/><path class="cls-3" d="M88.86,171.74h0s0,0,0,0h0Z"/><path class="cls-3" d="M88.44,41.07h0a0,0,0,0,0,0,0h0A0,0,0,0,0,88.44,41.07Z"/><path class="cls-3" d="M91.79,41.52a0,0,0,0,0-.05,0,0,0,0,0,0,0,0h.05A0,0,0,0,0,91.79,41.52Z"/><path class="cls-3" d="M95.12,42.14a0,0,0,1,0,0,.07A0,0,0,0,0,95.12,42.14Z"/><circle class="cls-3" cx="98.36" cy="42.96" r="0.07"/><circle class="cls-3" cx="101.6" cy="43.92" r="0.09"/><path class="cls-3" d="M104.87,45a.14.14,0,0,0-.17,0,.12.12,0,0,0,0,.16.12.12,0,0,0,.17,0A.12.12,0,0,0,104.87,45Z"/><circle class="cls-3" cx="107.91" cy="46.31" r="0.15"/><path class="cls-3" d="M111.09,47.61a.17.17,0,1,0,0,.24A.18.18,0,0,0,111.09,47.61Z"/><path class="cls-3" d="M114.09,49.17a.19.19,0,0,0-.28,0,.21.21,0,0,0,0,.28.2.2,0,0,0,.28-.28Z"/><path class="cls-3" d="M117,50.87a.24.24,0,0,0-.33,0,.22.22,0,0,0,0,.32.24.24,0,0,0,.33,0A.22.22,0,0,0,117,50.87Z"/><path class="cls-3" d="M119.86,52.71a.27.27,0,0,0-.39,0,.28.28,0,0,0,0,.38.27.27,0,0,0,.39,0A.28.28,0,0,0,119.86,52.71Z"/><circle class="cls-3" cx="122.38" cy="54.9" r="0.3"/><path class="cls-3" d="M125.23,56.8a.33.33,0,1,0-.47.47.32.32,0,0,0,.47,0A.33.33,0,0,0,125.23,56.8Z"/><circle class="cls-3" cx="127.5" cy="59.3" r="0.38"/><path class="cls-3" d="M130.17,61.4a.41.41,0,0,0-.58,0,.43.43,0,0,0,0,.58.41.41,0,0,0,.58-.58Z"/><path class="cls-3" d="M132.46,63.88a.44.44,0,1,0,0,.62A.44.44,0,0,0,132.46,63.88Z"/><circle class="cls-3" cx="134.28" cy="66.8" r="0.48"/><path class="cls-3" d="M136.65,69.16a.51.51,0,1,0,0,.72A.51.51,0,0,0,136.65,69.16Z"/><circle class="cls-3" cx="138.15" cy="72.33" r="0.54"/><path class="cls-3" d="M140.28,74.83a.56.56,0,0,0-.81,0,.57.57,0,0,0,.81.81A.56.56,0,0,0,140.28,74.83Z"/><path class="cls-3" d="M141.88,77.79a.6.6,0,1,0,0,.85A.59.59,0,0,0,141.88,77.79Z"/><circle class="cls-3" cx="142.88" cy="81.27" r="0.64"/><path class="cls-3" d="M144.62,83.94a.65.65,0,0,0-.93,0,.64.64,0,0,0,0,.92.65.65,0,1,0,.93-.92Z"/><path class="cls-3" d="M145.75,87.1a.69.69,0,1,0,0,1A.68.68,0,0,0,145.75,87.1Z"/><path class="cls-3" d="M146.72,90.33a.71.71,0,0,0-1,0,.69.69,0,0,0,0,1,.7.7,0,0,0,1-1Z"/><path class="cls-3" d="M147.52,93.59a.72.72,0,1,0,0,1A.72.72,0,0,0,147.52,93.59Z"/><path class="cls-3" d="M148.16,96.9a.75.75,0,0,0-1,0,.73.73,0,1,0,1,0Z"/><path class="cls-3" d="M148.63,100.24a.74.74,0,0,0-1,0,.73.73,0,0,0,0,1,.74.74,0,1,0,1-1Z"/><path class="cls-3" d="M148.93,103.59a.75.75,0,0,0-1.06,0,.75.75,0,0,0,1.06,1.06A.75.75,0,0,0,148.93,103.59Z"/><path class="cls-3" d="M149.05,107a.75.75,0,0,0-1.06,0,.77.77,0,0,0,0,1.07.75.75,0,1,0,1.06-1.07Z"/><path class="cls-3" d="M149,110.34a.75.75,0,1,0,0,1.06A.75.75,0,0,0,149,110.34Z"/><circle class="cls-3" cx="148.27" cy="114.24" r="0.75"/><path class="cls-3" d="M148.42,117.07a.74.74,0,1,0-1,1.05.74.74,0,0,0,1-1.05Z"/><path class="cls-3" d="M147.86,120.41a.72.72,0,0,0-1,0,.73.73,0,0,0,1,1A.72.72,0,0,0,147.86,120.41Z"/><path class="cls-3" d="M147.14,123.72a.71.71,0,1,0,0,1A.7.7,0,0,0,147.14,123.72Z"/><circle class="cls-3" cx="145.76" cy="127.48" r="0.7"/><circle class="cls-3" cx="144.73" cy="130.69" r="0.68"/><path class="cls-3" d="M144,133.39a.65.65,0,0,0-.91,0,.66.66,0,0,0,0,.92.65.65,0,1,0,.91-.92Z"/><circle class="cls-3" cx="142.19" cy="136.94" r="0.62"/><path class="cls-3" d="M141.1,139.54a.59.59,0,0,0-.84.84.59.59,0,0,0,.84-.84Z"/><circle class="cls-3" cx="139.03" cy="142.91" r="0.56"/><circle class="cls-3" cx="137.24" cy="145.77" r="0.53"/><path class="cls-3" d="M135.66,148.18a.5.5,0,0,0-.71,0,.48.48,0,0,0,0,.7.5.5,0,0,0,.71,0A.5.5,0,0,0,135.66,148.18Z"/><circle class="cls-3" cx="133.23" cy="151.19" r="0.46"/><path class="cls-3" d="M131.33,153.45a.42.42,0,1,0,0,.6A.42.42,0,0,0,131.33,153.45Z"/><circle class="cls-3" cx="128.7" cy="156.2" r="0.39"/><path class="cls-3" d="M126.51,158.27a.35.35,0,1,0,0,.5A.35.35,0,0,0,126.51,158.27Z"/><circle class="cls-3" cx="123.7" cy="160.72" r="0.31"/><path class="cls-3" d="M121.24,162.6a.28.28,0,0,0-.4,0,.27.27,0,0,0,0,.39.28.28,0,0,0,.4,0A.27.27,0,0,0,121.24,162.6Z"/><circle class="cls-3" cx="118.27" cy="164.73" r="0.25"/><path class="cls-3" d="M115.57,166.37a.23.23,0,0,0-.31,0,.22.22,0,1,0,.31,0Z"/><path class="cls-3" d="M112.6,168a.19.19,0,0,0-.26,0,.2.2,0,0,0,0,.27.19.19,0,0,0,.26,0A.18.18,0,0,0,112.6,168Z"/><path class="cls-3" d="M109.56,169.57a.16.16,0,1,0,0,.22A.16.16,0,0,0,109.56,169.57Z"/><path class="cls-3" d="M106.44,170.94a.11.11,0,0,0-.17,0,.13.13,0,0,0,0,.18.11.11,0,0,0,.17,0A.13.13,0,0,0,106.44,170.94Z"/><path class="cls-3" d="M103.27,172.15a.1.1,0,0,0-.14,0,.11.11,0,0,0,0,.15.1.1,0,0,0,.14,0A.11.11,0,0,0,103.27,172.15Z"/><path class="cls-3" d="M100.05,173.2a.08.08,0,1,0,0,.12A.09.09,0,0,0,100.05,173.2Z"/><path class="cls-3" d="M96.77,174.09a.06.06,0,0,0-.09,0,.06.06,0,0,0,.09.09A.06.06,0,0,0,96.77,174.09Z"/><path class="cls-3" d="M93.46,174.81a0,0,0,1,0,0,.06A.06.06,0,0,0,93.46,174.81Z"/><path class="cls-3" d="M88.86,37.33h0a0,0,0,0,0,0,0h0A0,0,0,0,0,88.86,37.33Z"/><path class="cls-3" d="M92.22,37.77a.06.06,0,0,0-.06,0s0,0,0,.06a0,0,0,0,0,.06,0A.06.06,0,0,0,92.22,37.77Z"/><path class="cls-3" d="M95.54,38.38a0,0,0,0,0-.07,0,.06.06,0,0,0,0,.08,0,0,0,0,0,.07,0A.06.06,0,0,0,95.54,38.38Z"/><circle class="cls-3" cx="98.79" cy="39.19" r="0.07"/><circle class="cls-3" cx="102.04" cy="40.11" r="0.09"/><path class="cls-3" d="M105.32,41.1a.11.11,0,0,0-.17,0,.13.13,0,0,0,.18.18A.14.14,0,0,0,105.32,41.1Z"/><circle class="cls-3" cx="108.38" cy="42.42" r="0.15"/><path class="cls-3" d="M111.59,43.67a.18.18,0,1,0,0,.25A.18.18,0,0,0,111.59,43.67Z"/><circle class="cls-3" cx="114.48" cy="45.31" r="0.21"/><circle class="cls-3" cx="117.42" cy="46.97" r="0.24"/><path class="cls-3" d="M120.47,48.57a.29.29,0,0,0-.39,0,.28.28,0,0,0,0,.38.27.27,0,0,0,.39,0A.28.28,0,0,0,120.47,48.57Z"/><circle class="cls-3" cx="123.04" cy="50.69" r="0.31"/><path class="cls-3" d="M126,52.5a.35.35,0,0,0-.49.49.35.35,0,1,0,.49-.49Z"/><circle class="cls-3" cx="128.29" cy="54.93" r="0.39"/><path class="cls-3" d="M131.06,56.93a.42.42,0,0,0-.59,0,.42.42,0,1,0,.59.59A.42.42,0,0,0,131.06,56.93Z"/><circle class="cls-3" cx="133.12" cy="59.64" r="0.46"/><path class="cls-3" d="M135.72,61.81a.51.51,0,0,0-.71,0,.5.5,0,0,0,.71.71A.51.51,0,0,0,135.72,61.81Z"/><circle class="cls-3" cx="137.48" cy="64.79" r="0.53"/><path class="cls-3" d="M139.88,67.11a.57.57,0,0,0-.81.81.56.56,0,0,0,.81,0A.58.58,0,0,0,139.88,67.11Z"/><circle class="cls-3" cx="141.34" cy="70.33" r="0.6"/><path class="cls-3" d="M143.51,72.78a.62.62,0,0,0-.89,0,.63.63,0,0,0,0,.9.62.62,0,0,0,.89,0A.63.63,0,0,0,143.51,72.78Z"/><path class="cls-3" d="M145.13,75.73a.67.67,0,1,0,0,1A.68.68,0,0,0,145.13,75.73Z"/><path class="cls-3" d="M146.59,78.76a.7.7,0,1,0,0,1A.69.69,0,0,0,146.59,78.76Z"/><path class="cls-3" d="M147.92,81.85a.74.74,0,1,0,0,1A.75.75,0,0,0,147.92,81.85Z"/><path class="cls-3" d="M149.08,85A.75.75,0,1,0,148,86.07.75.75,0,0,0,149.08,85Z"/><circle class="cls-3" cx="149.55" cy="88.76" r="0.77"/><path class="cls-3" d="M151,91.47a.79.79,0,1,0,0,1.12A.79.79,0,0,0,151,91.47Z"/><path class="cls-3" d="M151.66,94.77a.8.8,0,1,0,0,1.13A.79.79,0,0,0,151.66,94.77Z"/><path class="cls-3" d="M152.2,98.09a.81.81,0,0,0-1.15,0,.83.83,0,0,0,0,1.15.81.81,0,0,0,1.15-1.15Z"/><path class="cls-3" d="M152.59,101.44a.82.82,0,0,0-1.16,0,.8.8,0,0,0,0,1.16.82.82,0,0,0,1.16-1.16Z"/><path class="cls-3" d="M152.82,104.8a.83.83,0,0,0-1.18,1.18.83.83,0,0,0,1.18-1.18Z"/><path class="cls-3" d="M152.88,108.17a.85.85,0,0,0-1.18,0,.83.83,0,0,0,1.18,1.18A.85.85,0,0,0,152.88,108.17Z"/><circle class="cls-3" cx="152.19" cy="112.13" r="0.82"/><path class="cls-3" d="M152.51,114.92a.82.82,0,0,0-1.16,0,.8.8,0,0,0,0,1.16.82.82,0,1,0,1.16-1.16Z"/><path class="cls-3" d="M152.09,118.27a.83.83,0,0,0-1.15,0,.81.81,0,1,0,1.15,1.15A.83.83,0,0,0,152.09,118.27Z"/><path class="cls-3" d="M151.5,121.61a.8.8,0,0,0-1.13,1.13.8.8,0,0,0,1.13,0A.79.79,0,0,0,151.5,121.61Z"/><circle class="cls-3" cx="150.2" cy="125.47" r="0.78"/><path class="cls-3" d="M149.86,128.18a.77.77,0,1,0,0,1.09A.77.77,0,0,0,149.86,128.18Z"/><path class="cls-3" d="M148.81,131.4a.75.75,0,1,0,0,1.07A.77.77,0,0,0,148.81,131.4Z"/><path class="cls-3" d="M147.6,134.58a.72.72,0,1,0,0,1A.72.72,0,0,0,147.6,134.58Z"/><circle class="cls-3" cx="145.75" cy="138.19" r="0.7"/><path class="cls-3" d="M144.74,140.75a.66.66,0,0,0-.94,0,.68.68,0,0,0,0,.95.66.66,0,0,0,.94,0A.68.68,0,0,0,144.74,140.75Z"/><path class="cls-3" d="M143.09,143.74a.64.64,0,0,0-.89,0,.63.63,0,1,0,.89,0Z"/><path class="cls-3" d="M141.3,146.64a.59.59,0,1,0,0,.84A.58.58,0,0,0,141.3,146.64Z"/><circle class="cls-3" cx="138.99" cy="149.85" r="0.56"/><path class="cls-3" d="M137.33,152.18a.52.52,0,1,0,0,.74A.51.51,0,0,0,137.33,152.18Z"/><path class="cls-3" d="M135.16,154.81a.49.49,0,0,0-.69.69.49.49,0,0,0,.69-.69Z"/><circle class="cls-3" cx="132.54" cy="157.65" r="0.45"/><path class="cls-3" d="M130.44,159.75a.4.4,0,1,0,0,.57A.4.4,0,0,0,130.44,159.75Z"/><path class="cls-3" d="M127.92,162a.37.37,0,0,0-.53,0,.39.39,0,0,0,0,.53.37.37,0,1,0,.53-.53Z"/><path class="cls-3" d="M125.29,164.22a.33.33,0,1,0,0,.47A.33.33,0,0,0,125.29,164.22Z"/><circle class="cls-3" cx="122.36" cy="166.48" r="0.3"/><path class="cls-3" d="M119.76,168.19a.27.27,0,1,0-.38.38.27.27,0,0,0,.38-.38Z"/><path class="cls-3" d="M116.85,170a.23.23,0,1,0,0,.32A.22.22,0,0,0,116.85,170Z"/><path class="cls-3" d="M113.87,171.62a.21.21,0,0,0-.28,0,.2.2,0,1,0,.28,0Z"/><circle class="cls-3" cx="110.7" cy="173.24" r="0.17"/><circle class="cls-3" cx="107.6" cy="174.58" r="0.14"/><path class="cls-3" d="M104.52,175.69a.11.11,0,1,0-.16.16.11.11,0,0,0,.16-.16Z"/><path class="cls-3" d="M101.3,176.74a.1.1,0,1,0,0,.14A.12.12,0,0,0,101.3,176.74Z"/><path class="cls-3" d="M98,177.65a.08.08,0,0,0-.11,0,.07.07,0,0,0,0,.1.08.08,0,0,0,.11,0A.09.09,0,0,0,98,177.65Z"/><path class="cls-3" d="M94.72,178.39a.06.06,0,1,0,0,.08A.06.06,0,0,0,94.72,178.39Z"/><circle class="cls-3" cx="95.93" cy="34.67" r="0.06" transform="translate(3.58 77.99) rotate(-45)"/><path class="cls-3" d="M99.27,35.37a.07.07,0,1,0,0,.1A.07.07,0,0,0,99.27,35.37Z"/><path class="cls-3" d="M102.55,36.24a.11.11,0,1,0,0,.15A.11.11,0,0,0,102.55,36.24Z"/><path class="cls-3" d="M105.77,37.27a.11.11,0,0,0-.17,0,.13.13,0,0,0,0,.18.11.11,0,0,0,.17,0A.13.13,0,0,0,105.77,37.27Z"/><circle class="cls-3" cx="108.84" cy="38.54" r="0.15"/><path class="cls-3" d="M112.07,39.74a.2.2,0,0,0-.25,0,.19.19,0,0,0,0,.26.2.2,0,0,0,.25,0A.19.19,0,0,0,112.07,39.74Z"/><path class="cls-3" d="M115.13,41.19a.21.21,0,1,0,0,.29A.19.19,0,0,0,115.13,41.19Z"/><path class="cls-3" d="M118.14,42.76a.25.25,0,0,0-.36,0,.24.24,0,0,0,0,.35.25.25,0,0,0,.36,0A.26.26,0,0,0,118.14,42.76Z"/><path class="cls-3" d="M121.05,44.47a.28.28,0,1,0,0,.39A.27.27,0,0,0,121.05,44.47Z"/><path class="cls-3" d="M123.89,46.3a.31.31,0,1,0-.44.44.31.31,0,0,0,.44-.44Z"/><path class="cls-3" d="M126.65,48.26a.35.35,0,1,0,0,.5A.35.35,0,0,0,126.65,48.26Z"/><path class="cls-3" d="M129.32,50.33a.4.4,0,0,0-.56.56.4.4,0,0,0,.56-.56Z"/><path class="cls-3" d="M131.89,52.52a.44.44,0,1,0,0,.62A.44.44,0,0,0,131.89,52.52Z"/><circle class="cls-3" cx="134.02" cy="55.16" r="0.47"/><path class="cls-3" d="M136.72,57.24a.52.52,0,0,0-.73,0,.51.51,0,0,0,0,.72.52.52,0,0,0,.73,0A.53.53,0,0,0,136.72,57.24Z"/><path class="cls-3" d="M139,59.75a.56.56,0,0,0-.78,0,.57.57,0,0,0,0,.79.56.56,0,0,0,.78,0A.56.56,0,0,0,139,59.75Z"/><path class="cls-3" d="M141.1,62.36a.59.59,0,0,0-.84.84.58.58,0,0,0,.84,0A.6.6,0,0,0,141.1,62.36Z"/><path class="cls-3" d="M143.1,65.07a.63.63,0,0,0-.88,0,.64.64,0,0,0,0,.89.63.63,0,0,0,.88-.89Z"/><path class="cls-3" d="M145,67.86a.66.66,0,1,0,0,.94A.66.66,0,0,0,145,67.86Z"/><path class="cls-3" d="M146.75,70.73a.71.71,0,1,0,0,1A.7.7,0,0,0,146.75,70.73Z"/><path class="cls-3" d="M148.37,73.68a.74.74,0,1,0,0,1A.73.73,0,0,0,148.37,73.68Z"/><circle class="cls-3" cx="149.32" cy="77.24" r="0.77"/><path class="cls-3" d="M151.2,79.78a.79.79,0,1,0,0,1.12A.79.79,0,0,0,151.2,79.78Z"/><path class="cls-3" d="M152.41,82.92a.82.82,0,0,0-1.16,0,.82.82,0,1,0,1.16,1.16A.82.82,0,0,0,152.41,82.92Z"/><circle class="cls-3" cx="152.87" cy="86.71" r="0.84"/><path class="cls-3" d="M154.38,89.35a.86.86,0,0,0-1.22,0,.87.87,0,1,0,1.22,0Z"/><path class="cls-3" d="M155.14,92.64a.87.87,0,1,0,0,1.23A.86.86,0,0,0,155.14,92.64Z"/><path class="cls-3" d="M155.75,96a.88.88,0,1,0,0,1.25A.89.89,0,0,0,155.75,96Z"/><path class="cls-3" d="M156.21,99.29a.9.9,0,0,0-1.27,0,.89.89,0,0,0,0,1.26.9.9,0,0,0,1.27,0A.89.89,0,0,0,156.21,99.29Z"/><circle class="cls-3" cx="155.88" cy="103.28" r="0.91"/><path class="cls-3" d="M156.67,106a.91.91,0,0,0-1.28,0,.91.91,0,1,0,1.28,1.28A.91.91,0,0,0,156.67,106Z"/><path class="cls-3" d="M156.67,109.39a.91.91,0,1,0-1.28,1.28.91.91,0,0,0,1.28-1.28Z"/><circle class="cls-3" cx="155.88" cy="113.4" r="0.91"/><path class="cls-3" d="M156.21,116.13a.89.89,0,1,0-1.27,1.26.9.9,0,0,0,1.27,0A.89.89,0,0,0,156.21,116.13Z"/><path class="cls-3" d="M155.75,119.48a.88.88,0,1,0,0,1.25A.89.89,0,0,0,155.75,119.48Z"/><path class="cls-3" d="M155.14,122.8A.88.88,0,1,0,153.9,124a.86.86,0,0,0,1.24,0A.88.88,0,0,0,155.14,122.8Z"/><path class="cls-3" d="M154.38,126.1a.86.86,0,0,0-1.22,0,.87.87,0,1,0,1.22,0Z"/><circle class="cls-3" cx="152.87" cy="129.97" r="0.84"/><path class="cls-3" d="M152.41,132.59a.82.82,0,1,0,0,1.17A.83.83,0,0,0,152.41,132.59Z"/><path class="cls-3" d="M151.2,135.78a.79.79,0,1,0,0,1.12A.79.79,0,0,0,151.2,135.78Z"/><circle class="cls-3" cx="149.32" cy="139.44" r="0.77"/><path class="cls-3" d="M148.37,142a.74.74,0,1,0,0,1A.73.73,0,0,0,148.37,142Z"/><path class="cls-3" d="M146.75,145a.71.71,0,1,0,0,1A.7.7,0,0,0,146.75,145Z"/><path class="cls-3" d="M145,147.88a.66.66,0,1,0,0,.94A.66.66,0,0,0,145,147.88Z"/><path class="cls-3" d="M143.1,150.72a.63.63,0,0,0-.88,0,.64.64,0,0,0,0,.89.63.63,0,1,0,.88-.89Z"/><path class="cls-3" d="M141.1,153.48a.58.58,0,0,0-.84,0,.59.59,0,1,0,.84,0Z"/><circle class="cls-3" cx="138.57" cy="156.53" r="0.55"/><path class="cls-3" d="M136.72,158.71a.52.52,0,1,0,0,.73A.54.54,0,0,0,136.72,158.71Z"/><path class="cls-3" d="M134.35,161.18a.47.47,0,0,0-.66,0,.48.48,0,0,0,0,.67.47.47,0,0,0,.66,0A.47.47,0,0,0,134.35,161.18Z"/><path class="cls-3" d="M131.89,163.54a.44.44,0,1,0,0,.62A.44.44,0,0,0,131.89,163.54Z"/><circle class="cls-3" cx="129.04" cy="166.07" r="0.4"/><path class="cls-3" d="M126.65,167.92a.35.35,0,1,0,0,.5A.35.35,0,0,0,126.65,167.92Z"/><path class="cls-3" d="M123.89,169.93a.31.31,0,0,0-.44,0,.33.33,0,0,0,0,.45.31.31,0,0,0,.44,0A.31.31,0,0,0,123.89,169.93Z"/><path class="cls-3" d="M121.05,171.82a.28.28,0,1,0,0,.39A.27.27,0,0,0,121.05,171.82Z"/><path class="cls-3" d="M118.14,173.57a.25.25,0,0,0-.36,0,.24.24,0,0,0,0,.35.25.25,0,0,0,.36,0A.26.26,0,0,0,118.14,173.57Z"/><path class="cls-3" d="M115.13,175.2a.21.21,0,1,0,0,.29A.19.19,0,0,0,115.13,175.2Z"/><path class="cls-3" d="M112.07,176.68a.18.18,0,1,0,0,.25A.18.18,0,0,0,112.07,176.68Z"/><path class="cls-3" d="M109,178a.15.15,0,1,0,0,.21A.17.17,0,0,0,109,178Z"/><path class="cls-3" d="M105.77,179.23a.11.11,0,0,0-.17,0,.13.13,0,0,0,0,.18.11.11,0,0,0,.17,0A.13.13,0,0,0,105.77,179.23Z"/><path class="cls-3" d="M102.55,180.29a.11.11,0,1,0,0,.15A.11.11,0,0,0,102.55,180.29Z"/><circle class="cls-3" cx="99.22" cy="181.26" r="0.07"/><circle class="cls-3" cx="99.65" cy="31.65" r="0.08"/><path class="cls-3" d="M103,32.45a.11.11,0,1,0,0,.15A.11.11,0,0,0,103,32.45Z"/><path class="cls-3" d="M106.22,33.45a.13.13,0,0,0-.18,0,.11.11,0,0,0,0,.17.13.13,0,0,0,.18,0A.14.14,0,0,0,106.22,33.45Z"/><circle class="cls-3" cx="109.3" cy="34.68" r="0.16"/><path class="cls-3" d="M112.55,35.83a.19.19,0,0,0-.26,0,.2.2,0,0,0,0,.27.19.19,0,0,0,.26,0A.18.18,0,0,0,112.55,35.83Z"/><path class="cls-3" d="M115.64,37.23a.21.21,0,0,0-.31,0,.22.22,0,0,0,.31.31A.21.21,0,0,0,115.64,37.23Z"/><path class="cls-3" d="M118.66,38.75a.25.25,0,1,0,0,.35A.24.24,0,0,0,118.66,38.75Z"/><path class="cls-3" d="M121.62,40.39a.29.29,0,1,0-.41.41.29.29,0,0,0,.41-.41Z"/><circle class="cls-3" cx="124.28" cy="42.39" r="0.32"/><circle class="cls-3" cx="127.05" cy="44.31" r="0.36"/><path class="cls-3" d="M130,46.06a.4.4,0,1,0,0,.57A.4.4,0,0,0,130,46.06Z"/><circle class="cls-3" cx="132.35" cy="48.49" r="0.45"/><path class="cls-3" d="M135.21,50.4a.49.49,0,0,0-.69,0,.47.47,0,0,0,0,.69.49.49,0,1,0,.69-.69Z"/><circle class="cls-3" cx="137.27" cy="53.1" r="0.53"/><path class="cls-3" d="M140,55.16a.58.58,0,0,0-.81,0A.57.57,0,0,0,140,56,.58.58,0,0,0,140,55.16Z"/><circle class="cls-3" cx="141.78" cy="58.12" r="0.62"/><path class="cls-3" d="M144.34,60.31a.66.66,0,1,0,0,.93A.67.67,0,0,0,144.34,60.31Z"/><circle class="cls-3" cx="145.85" cy="63.51" r="0.7"/><path class="cls-3" d="M148.22,65.81a.73.73,0,1,0,0,1A.74.74,0,0,0,148.22,65.81Z"/><circle class="cls-3" cx="149.44" cy="69.22" r="0.77"/><path class="cls-3" d="M151.62,71.62a.81.81,0,1,0,0,1.14A.81.81,0,0,0,151.62,71.62Z"/><path class="cls-3" d="M153.12,74.63a.85.85,0,0,0-1.18,0,.83.83,0,0,0,1.18,1.18A.85.85,0,0,0,153.12,74.63Z"/><path class="cls-3" d="M154.49,77.71a.86.86,0,1,0,0,1.22A.86.86,0,0,0,154.49,77.71Z"/><path class="cls-3" d="M155.72,80.84a.88.88,0,1,0,0,1.25A.88.88,0,0,0,155.72,80.84Z"/><circle class="cls-3" cx="156.17" cy="84.66" r="0.92"/><path class="cls-3" d="M157.78,87.24a.94.94,0,0,0-1.33,0,.94.94,0,0,0,1.33,1.33A.94.94,0,0,0,157.78,87.24Z"/><path class="cls-3" d="M158.6,90.5a1,1,0,1,0,0,1.36A1,1,0,0,0,158.6,90.5Z"/><path class="cls-3" d="M159.27,93.8a1,1,0,0,0-1.37,0,1,1,0,1,0,1.37,0Z"/><path class="cls-3" d="M159.8,97.13a1,1,0,1,0,0,1.39A1,1,0,0,0,159.8,97.13Z"/><circle class="cls-3" cx="159.48" cy="101.18" r="0.99"/><path class="cls-3" d="M160.42,103.84a1,1,0,1,0,0,1.41A1,1,0,0,0,160.42,103.84Z"/><circle class="cls-3" cx="159.81" cy="107.92" r="1"/><path class="cls-3" d="M160.46,110.58a1,1,0,1,0,0,1.42A1,1,0,0,0,160.46,110.58Z"/><circle class="cls-3" cx="159.55" cy="114.66" r="0.99"/><circle class="cls-3" cx="159.21" cy="118.02" r="0.99"/><path class="cls-3" d="M159.41,120.67a1,1,0,1,0,0,1.37A1,1,0,0,0,159.41,120.67Z"/><path class="cls-3" d="M158.78,124a1,1,0,1,0,0,1.35A1,1,0,0,0,158.78,124Z"/><path class="cls-3" d="M158,127.3a.93.93,0,1,0,0,1.32A.92.92,0,0,0,158,127.3Z"/><circle class="cls-3" cx="156.42" cy="131.21" r="0.92"/><path class="cls-3" d="M156,133.78a.9.9,0,1,0,0,1.27A.9.9,0,0,0,156,133.78Z"/><path class="cls-3" d="M154.81,137a.87.87,0,0,0-1.23,0,.86.86,0,0,0,0,1.22.87.87,0,0,0,1.23-1.22Z"/><circle class="cls-3" cx="152.88" cy="140.69" r="0.84"/><path class="cls-3" d="M152,143.16a.81.81,0,0,0-1.15,0,.83.83,0,0,0,0,1.15.81.81,0,1,0,1.15-1.15Z"/><path class="cls-3" d="M150.41,146.17a.78.78,0,0,0-1.11,0,.77.77,0,0,0,0,1.1.78.78,0,1,0,1.11-1.1Z"/><path class="cls-3" d="M148.67,149.11a.73.73,0,0,0-1,0,.74.74,0,0,0,0,1,.73.73,0,0,0,1,0A.74.74,0,0,0,148.67,149.11Z"/><circle class="cls-3" cx="146.32" cy="152.47" r="0.71"/><path class="cls-3" d="M144.85,154.76a.66.66,0,1,0,0,.94A.66.66,0,0,0,144.85,154.76Z"/><circle class="cls-3" cx="142.32" cy="157.9" r="0.63"/><path class="cls-3" d="M140.56,160.07a.59.59,0,0,0-.83,0,.57.57,0,0,0,0,.82.59.59,0,0,0,.83,0A.59.59,0,0,0,140.56,160.07Z"/><path class="cls-3" d="M138.24,162.58a.54.54,0,0,0-.76,0,.55.55,0,0,0,0,.77.54.54,0,0,0,.76,0A.53.53,0,0,0,138.24,162.58Z"/><path class="cls-3" d="M135.83,165a.5.5,0,0,0-.71,0,.5.5,0,1,0,.71,0Z"/><circle class="cls-3" cx="132.99" cy="167.64" r="0.46"/><path class="cls-3" d="M130.7,169.52a.4.4,0,0,0-.59,0,.41.41,0,0,0,0,.58.4.4,0,0,0,.59,0A.41.41,0,0,0,130.7,169.52Z"/><circle class="cls-3" cx="127.74" cy="171.87" r="0.38"/><path class="cls-3" d="M125.21,173.58a.33.33,0,1,0,0,.47A.33.33,0,0,0,125.21,173.58Z"/><path class="cls-3" d="M122.35,175.44a.29.29,0,0,0-.42,0,.3.3,0,0,0,0,.41.31.31,0,0,0,.42,0A.3.3,0,0,0,122.35,175.44Z"/><path class="cls-3" d="M119.41,177.16a.26.26,0,1,0,0,.37A.27.27,0,0,0,119.41,177.16Z"/><circle class="cls-3" cx="116.24" cy="178.92" r="0.23"/><path class="cls-3" d="M113.33,180.24a.18.18,0,0,0-.27,0,.19.19,0,0,0,0,.26.18.18,0,0,0,.27,0A.19.19,0,0,0,113.33,180.24Z"/><circle class="cls-3" cx="110.09" cy="181.69" r="0.16"/><path class="cls-3" d="M107,182.77a.14.14,0,0,0-.19,0,.15.15,0,0,0,0,.2.14.14,0,0,0,.19,0A.15.15,0,0,0,107,182.77Z"/><path class="cls-3" d="M103.79,183.84a.11.11,0,1,0,0,.15A.11.11,0,0,0,103.79,183.84Z"/><path class="cls-3" d="M100.53,184.77a.07.07,0,0,0-.12,0,.08.08,0,0,0,0,.11.07.07,0,0,0,.12,0A.08.08,0,0,0,100.53,184.77Z"/></g></svg>